<?xml version="1.0" encoding="UTF-8" standalone="no"?>
<!-- Created with Inkscape (http://www.inkscape.org/) -->

<svg
   width="25.4mm"
   height="128.49931mm"
   viewBox="0 0 25.399999 128.49931"
   version="1.1"
   id="svg47416"
   inkscape:version="1.3.2 (091e20e, 2023-11-25, custom)"
   sodipodi:docname="Template.svg"
   xmlns:inkscape="http://www.inkscape.org/namespaces/inkscape"
   xmlns:sodipodi="http://sodipodi.sourceforge.net/DTD/sodipodi-0.dtd"
   xmlns="http://www.w3.org/2000/svg"
   xmlns:svg="http://www.w3.org/2000/svg"
   xmlns:rdf="http://www.w3.org/1999/02/22-rdf-syntax-ns#"
   xmlns:cc="http://creativecommons.org/ns#"
   xmlns:dc="http://purl.org/dc/elements/1.1/">
  <defs
     id="defs47410">
    <clipPath
       id="clip465">
      <path
         d="M 0.03125,0.253906 H 22.710938 V 24.992188 H 0.03125 Z m 0,0"
         id="path3835"
         inkscape:connector-curvature="0" />
    </clipPath>
    <clipPath
       id="clip467">
      <path
         d="m 0.246094,0.488281 h 16.25 v 15.101563 h -16.25 z m 0,0"
         id="path3851"
         inkscape:connector-curvature="0" />
    </clipPath>
    <clipPath
       id="clip469">
      <path
         d="M 0.03125,0.828125 H 22.710938 V 25.570312 H 0.03125 Z m 0,0"
         id="path3867"
         inkscape:connector-curvature="0" />
    </clipPath>
    <clipPath
       id="clip471">
      <path
         d="m 0.246094,0.0664062 h 16.25 V 15.164062 h -16.25 z m 0,0"
         id="path3883"
         inkscape:connector-curvature="0" />
    </clipPath>
    <clipPath
       id="clip473">
      <path
         d="M 0.996094,0.253906 H 23.675781 V 24.992188 H 0.996094 Z m 0,0"
         id="path3899"
         inkscape:connector-curvature="0" />
    </clipPath>
    <clipPath
       id="clip475">
      <path
         d="m 0.210938,0.488281 h 16.25 v 15.101563 h -16.25 z m 0,0"
         id="path3915"
         inkscape:connector-curvature="0" />
    </clipPath>
    <clipPath
       id="clip477">
      <path
         d="M 0.996094,0.828125 H 23.675781 V 25.570312 H 0.996094 Z m 0,0"
         id="path3931"
         inkscape:connector-curvature="0" />
    </clipPath>
    <clipPath
       id="clip479">
      <path
         d="m 0.210938,0.0664062 h 16.25 V 15.164062 h -16.25 z m 0,0"
         id="path3947"
         inkscape:connector-curvature="0" />
    </clipPath>
    <clipPath
       id="clip481">
      <path
         d="M 0.03125,0.382812 H 22.710938 V 25.121094 H 0.03125 Z m 0,0"
         id="path3963"
         inkscape:connector-curvature="0" />
    </clipPath>
    <clipPath
       id="clip483">
      <path
         d="m 0.246094,0.617188 h 16.25 V 15.71875 h -16.25 z m 0,0"
         id="path3979"
         inkscape:connector-curvature="0" />
    </clipPath>
    <clipPath
       id="clip485">
      <path
         d="M 0.03125,0.957031 H 22.710938 V 25.699219 H 0.03125 Z m 0,0"
         id="path3995"
         inkscape:connector-curvature="0" />
    </clipPath>
    <clipPath
       id="clip487">
      <path
         d="m 0.246094,0.195312 h 16.25 v 15.097657 h -16.25 z m 0,0"
         id="path4011"
         inkscape:connector-curvature="0" />
    </clipPath>
    <clipPath
       id="clip489">
      <path
         d="M 0.996094,0.382812 H 23.675781 V 25.121094 H 0.996094 Z m 0,0"
         id="path4027"
         inkscape:connector-curvature="0" />
    </clipPath>
    <clipPath
       id="clip491">
      <path
         d="m 0.210938,0.617188 h 16.25 V 15.71875 h -16.25 z m 0,0"
         id="path4043"
         inkscape:connector-curvature="0" />
    </clipPath>
    <clipPath
       id="clip493">
      <path
         d="M 0.996094,0.957031 H 23.675781 V 25.699219 H 0.996094 Z m 0,0"
         id="path4059"
         inkscape:connector-curvature="0" />
    </clipPath>
    <clipPath
       id="clip495">
      <path
         d="m 0.210938,0.195312 h 16.25 v 15.097657 h -16.25 z m 0,0"
         id="path4075"
         inkscape:connector-curvature="0" />
    </clipPath>
    <clipPath
       id="clip465-3">
      <path
         inkscape:connector-curvature="0"
         d="M 0.03125,0.253906 H 22.710938 V 24.992188 H 0.03125 Z m 0,0"
         id="path3835-6" />
    </clipPath>
    <clipPath
       id="clip467-7">
      <path
         inkscape:connector-curvature="0"
         d="m 0.246094,0.488281 h 16.25 v 15.101563 h -16.25 z m 0,0"
         id="path3851-5" />
    </clipPath>
    <clipPath
       id="clip469-3">
      <path
         inkscape:connector-curvature="0"
         d="M 0.03125,0.828125 H 22.710938 V 25.570312 H 0.03125 Z m 0,0"
         id="path3867-5" />
    </clipPath>
    <clipPath
       id="clip471-6">
      <path
         inkscape:connector-curvature="0"
         d="m 0.246094,0.0664062 h 16.25 V 15.164062 h -16.25 z m 0,0"
         id="path3883-2" />
    </clipPath>
    <clipPath
       id="clip473-9">
      <path
         inkscape:connector-curvature="0"
         d="M 0.996094,0.253906 H 23.675781 V 24.992188 H 0.996094 Z m 0,0"
         id="path3899-1" />
    </clipPath>
    <clipPath
       id="clip475-2">
      <path
         inkscape:connector-curvature="0"
         d="m 0.210938,0.488281 h 16.25 v 15.101563 h -16.25 z m 0,0"
         id="path3915-7" />
    </clipPath>
    <clipPath
       id="clip477-0">
      <path
         inkscape:connector-curvature="0"
         d="M 0.996094,0.828125 H 23.675781 V 25.570312 H 0.996094 Z m 0,0"
         id="path3931-9" />
    </clipPath>
    <clipPath
       id="clip479-3">
      <path
         inkscape:connector-curvature="0"
         d="m 0.210938,0.0664062 h 16.25 V 15.164062 h -16.25 z m 0,0"
         id="path3947-6" />
    </clipPath>
    <clipPath
       id="clip481-0">
      <path
         inkscape:connector-curvature="0"
         d="M 0.03125,0.382812 H 22.710938 V 25.121094 H 0.03125 Z m 0,0"
         id="path3963-6" />
    </clipPath>
    <clipPath
       id="clip483-2">
      <path
         inkscape:connector-curvature="0"
         d="m 0.246094,0.617188 h 16.25 V 15.71875 h -16.25 z m 0,0"
         id="path3979-6" />
    </clipPath>
    <clipPath
       id="clip485-1">
      <path
         inkscape:connector-curvature="0"
         d="M 0.03125,0.957031 H 22.710938 V 25.699219 H 0.03125 Z m 0,0"
         id="path3995-8" />
    </clipPath>
    <clipPath
       id="clip487-7">
      <path
         inkscape:connector-curvature="0"
         d="m 0.246094,0.195312 h 16.25 v 15.097657 h -16.25 z m 0,0"
         id="path4011-9" />
    </clipPath>
    <clipPath
       id="clip489-2">
      <path
         inkscape:connector-curvature="0"
         d="M 0.996094,0.382812 H 23.675781 V 25.121094 H 0.996094 Z m 0,0"
         id="path4027-0" />
    </clipPath>
    <clipPath
       id="clip491-2">
      <path
         inkscape:connector-curvature="0"
         d="m 0.210938,0.617188 h 16.25 V 15.71875 h -16.25 z m 0,0"
         id="path4043-3" />
    </clipPath>
    <clipPath
       id="clip493-7">
      <path
         inkscape:connector-curvature="0"
         d="M 0.996094,0.957031 H 23.675781 V 25.699219 H 0.996094 Z m 0,0"
         id="path4059-5" />
    </clipPath>
    <clipPath
       id="clip495-9">
      <path
         inkscape:connector-curvature="0"
         d="m 0.210938,0.195312 h 16.25 v 15.097657 h -16.25 z m 0,0"
         id="path4075-2" />
    </clipPath>
  </defs>
  <sodipodi:namedview
     id="base"
     pagecolor="#ffffff"
     bordercolor="#666666"
     borderopacity="1.0"
     inkscape:pageopacity="0.0"
     inkscape:pageshadow="2"
     inkscape:zoom="3.6203867"
     inkscape:cx="29.692961"
     inkscape:cy="143.49296"
     inkscape:document-units="mm"
     inkscape:current-layer="components"
     showgrid="false"
     fit-margin-top="0"
     fit-margin-left="0"
     fit-margin-right="0"
     fit-margin-bottom="0"
     inkscape:snap-bbox="true"
     inkscape:bbox-nodes="true"
     inkscape:snap-nodes="false"
     inkscape:snap-others="false"
     inkscape:window-width="1920"
     inkscape:window-height="1017"
     inkscape:window-x="-8"
     inkscape:window-y="-8"
     inkscape:window-maximized="1"
     inkscape:showpageshadow="2"
     inkscape:pagecheckerboard="0"
     inkscape:deskcolor="#d1d1d1" />
  <metadata
     id="metadata47413">
    <rdf:RDF>
      <cc:Work
         rdf:about="">
        <dc:format>image/svg+xml</dc:format>
        <dc:type
           rdf:resource="http://purl.org/dc/dcmitype/StillImage" />
      </cc:Work>
    </rdf:RDF>
  </metadata>
  <g
     inkscape:label="Layer 1"
     inkscape:groupmode="layer"
     id="layer1"
     transform="translate(-331.91936,46.631807)"
     style="display:inline">
    <path
       inkscape:connector-curvature="0"
       style="fill:#e6e6e6;fill-opacity:1;fill-rule:nonzero;stroke:none;stroke-width:0.352778"
       d="m 332.01168,-46.5381 h 25.21395 V 81.775178 h -25.21395 z m 0,0"
       id="path26769" />
    <path
       inkscape:connector-curvature="0"
       style="fill:#ababab;fill-opacity:1;fill-rule:nonzero;stroke:none;stroke-width:0.352778"
       d="m 357.31936,-46.631807 h -25.4 V 81.867508 h 25.4 z M 357.13193,81.681468 H 332.10538 V -46.444394 h 25.02655 z m 0,0"
       id="path26771" />
    <g
       id="use28555"
       style="fill:#000000;fill-opacity:1"
       transform="matrix(0.3527778,0,0,0.3527778,339.83546,24.929857)">
      <path
         id="path51443"
         d="m 0.71875,-0.5 c 0,0.28125 0.21875,0.5 0.5,0.5 h 3.015625 c 0.25,0 0.453125,-0.203125 0.453125,-0.453125 0,-0.25 -0.203125,-0.4375 -0.453125,-0.4375 H 1.703125 V -5.15625 c 0,-0.265625 -0.21875,-0.484375 -0.484375,-0.484375 -0.28125,0 -0.5,0.21875 -0.5,0.484375 z m 0,0"
         style="stroke:none"
         inkscape:connector-curvature="0" />
    </g>
    <g
       id="use28559"
       style="fill:#000000;fill-opacity:1"
       transform="matrix(0.3527778,0,0,0.3527778,341.62931,24.929857)">
      <path
         id="path51439"
         d="m 1.21875,0 h 3.296875 c 0.234375,0 0.4375,-0.1875 0.4375,-0.4375 0,-0.25 -0.203125,-0.4375 -0.4375,-0.4375 h -2.8125 v -1.515625 h 2.40625 c 0.25,0 0.4375,-0.1875 0.4375,-0.421875 0,-0.25 -0.1875,-0.453125 -0.4375,-0.453125 H 1.703125 V -4.71875 H 4.46875 c 0.25,0 0.4375,-0.1875 0.4375,-0.4375 0,-0.25 -0.1875,-0.4375 -0.4375,-0.4375 h -3.25 c -0.28125,0 -0.5,0.203125 -0.5,0.484375 V -0.5 c 0,0.28125 0.21875,0.5 0.5,0.5 z m 0,0"
         style="stroke:none"
         inkscape:connector-curvature="0" />
    </g>
    <g
       id="use28563"
       style="fill:#000000;fill-opacity:1"
       transform="matrix(0.3527778,0,0,0.3527778,343.60173,24.929857)">
      <path
         id="path51435"
         d="m 2.90625,0.078125 h 0.046875 c 0.28125,0 0.46875,-0.15625 0.578125,-0.390625 L 5.5,-4.953125 c 0.015625,-0.0625 0.046875,-0.140625 0.046875,-0.21875 0,-0.265625 -0.21875,-0.46875 -0.484375,-0.46875 -0.234375,0 -0.421875,0.15625 -0.484375,0.328125 L 2.9375,-1.25 1.328125,-5.28125 c -0.078125,-0.21875 -0.25,-0.359375 -0.5,-0.359375 -0.28125,0 -0.5,0.21875 -0.5,0.484375 0,0.078125 0.03125,0.15625 0.0625,0.234375 L 2.34375,-0.3125 c 0.109375,0.234375 0.28125,0.390625 0.5625,0.390625 z m 0,0"
         style="stroke:none"
         inkscape:connector-curvature="0" />
    </g>
    <g
       id="use28567"
       style="fill:#000000;fill-opacity:1"
       transform="matrix(0.3527778,0,0,0.3527778,345.70823,24.929857)">
      <path
         id="path51431"
         d="m 1.21875,0 h 3.296875 c 0.234375,0 0.4375,-0.1875 0.4375,-0.4375 0,-0.25 -0.203125,-0.4375 -0.4375,-0.4375 h -2.8125 v -1.515625 h 2.40625 c 0.25,0 0.4375,-0.1875 0.4375,-0.421875 0,-0.25 -0.1875,-0.453125 -0.4375,-0.453125 H 1.703125 V -4.71875 H 4.46875 c 0.25,0 0.4375,-0.1875 0.4375,-0.4375 0,-0.25 -0.1875,-0.4375 -0.4375,-0.4375 h -3.25 c -0.28125,0 -0.5,0.203125 -0.5,0.484375 V -0.5 c 0,0.28125 0.21875,0.5 0.5,0.5 z m 0,0"
         style="stroke:none"
         inkscape:connector-curvature="0" />
    </g>
    <g
       id="use28571"
       style="fill:#000000;fill-opacity:1"
       transform="matrix(0.3527778,0,0,0.3527778,347.65697,24.929857)">
      <path
         id="path51427"
         d="m 0.71875,-0.5 c 0,0.28125 0.21875,0.5 0.5,0.5 h 3.015625 c 0.25,0 0.453125,-0.203125 0.453125,-0.453125 0,-0.25 -0.203125,-0.4375 -0.453125,-0.4375 H 1.703125 V -5.15625 c 0,-0.265625 -0.21875,-0.484375 -0.484375,-0.484375 -0.28125,0 -0.5,0.21875 -0.5,0.484375 z m 0,0"
         style="stroke:none"
         inkscape:connector-curvature="0" />
    </g>
    <path
       inkscape:connector-curvature="0"
       style="fill:#000000;fill-opacity:1;fill-rule:nonzero;stroke:none;stroke-width:0.352778"
       d="m 355.46315,57.787664 c 0,-0.549838 -0.45064,-1.000455 -1.00048,-1.000455 h -7.68117 c -0.54984,0 -1.00048,0.450617 -1.00048,1.000455 v 12.172214 c 0,0.54984 0.45064,1.00045 1.00048,1.00045 h 7.68117 c 0.54984,0 1.00048,-0.45061 1.00048,-1.00045 z m 0,0"
       id="path29797" />
    <g
       id="use29799"
       style="fill:#e6e6e6;fill-opacity:1"
       transform="matrix(0.3527778,0,0,0.3527778,347.96693,59.873978)">
      <path
         id="path51423"
         d="m 2.75,0.078125 c 1.40625,0 2.4375,-1.0625 2.4375,-2.359375 0,-1.296875 -1.015625,-2.34375 -2.421875,-2.34375 -1.40625,0 -2.421875,1.0625 -2.421875,2.34375 v 0.015625 c 0,1.296875 1.015625,2.34375 2.40625,2.34375 z M 2.765625,-0.84375 c -0.796875,0 -1.375,-0.65625 -1.375,-1.4375 0,-0.78125 0.5625,-1.421875 1.359375,-1.421875 0.8125,0 1.390625,0.640625 1.390625,1.421875 v 0.015625 c 0,0.78125 -0.5625,1.421875 -1.375,1.421875 z m 0,0"
         style="stroke:none"
         inkscape:connector-curvature="0" />
    </g>
    <g
       id="use29803"
       style="fill:#e6e6e6;fill-opacity:1"
       transform="matrix(0.3527778,0,0,0.3527778,349.99377,59.873978)">
      <path
         id="path51415"
         d="m 2.4375,0.078125 c 1.234375,0 2,-0.6875 2,-2.0625 V -4.09375 c 0,-0.28125 -0.21875,-0.5 -0.5,-0.5 -0.28125,0 -0.5,0.21875 -0.5,0.5 v 2.15625 c 0,0.71875 -0.375,1.09375 -0.984375,1.09375 -0.609375,0 -0.984375,-0.390625 -0.984375,-1.125 v -2.125 c 0,-0.28125 -0.21875,-0.5 -0.5,-0.5 -0.265625,0 -0.5,0.21875 -0.5,0.5 v 2.140625 c 0,1.34375 0.75,2.03125 1.96875,2.03125 z m 0,0"
         style="stroke:none"
         inkscape:connector-curvature="0" />
    </g>
    <g
       id="use29805"
       style="fill:#e6e6e6;fill-opacity:1"
       transform="matrix(0.3527778,0,0,0.3527778,351.79151,59.873978)">
      <path
         id="path51419"
         d="m 1.609375,-0.46875 c 0,0.28125 0.21875,0.5 0.5,0.5 0.28125,0 0.5,-0.21875 0.5,-0.5 V -3.625 H 3.5625 c 0.265625,0 0.46875,-0.203125 0.46875,-0.46875 0,-0.25 -0.203125,-0.453125 -0.46875,-0.453125 H 0.640625 c -0.25,0 -0.453125,0.203125 -0.453125,0.453125 0,0.265625 0.203125,0.46875 0.453125,0.46875 h 0.96875 z m 0,0"
         style="stroke:none"
         inkscape:connector-curvature="0" />
    </g>
    <path
       inkscape:connector-curvature="0"
       style="fill:#000000;fill-opacity:1;fill-rule:nonzero;stroke:none;stroke-width:0.352778"
       d="m 355.46315,2.4470229 c 0,-0.549836 -0.45064,-1.000453 -1.00048,-1.000453 h -7.68117 c -0.54984,0 -1.00048,0.450617 -1.00048,1.000453 V 14.619237 c 0,0.549836 0.45064,1.000456 1.00048,1.000456 h 7.68117 c 0.54984,0 1.00048,-0.45062 1.00048,-1.000456 z m 0,0"
       id="path29831" />
    <g
       id="use29833"
       style="fill:#e6e6e6;fill-opacity:1"
       transform="matrix(0.3527778,0,0,0.3527778,347.96693,4.5333419)">
      <path
         id="path51411"
         d="m 2.75,0.078125 c 1.40625,0 2.4375,-1.0625 2.4375,-2.359375 0,-1.296875 -1.015625,-2.34375 -2.421875,-2.34375 -1.40625,0 -2.421875,1.0625 -2.421875,2.34375 v 0.015625 c 0,1.296875 1.015625,2.34375 2.40625,2.34375 z M 2.765625,-0.84375 c -0.796875,0 -1.375,-0.65625 -1.375,-1.4375 0,-0.78125 0.5625,-1.421875 1.359375,-1.421875 0.8125,0 1.390625,0.640625 1.390625,1.421875 v 0.015625 c 0,0.78125 -0.5625,1.421875 -1.375,1.421875 z m 0,0"
         style="stroke:none"
         inkscape:connector-curvature="0" />
    </g>
    <g
       id="use29837"
       style="fill:#e6e6e6;fill-opacity:1"
       transform="matrix(0.3527778,0,0,0.3527778,349.99377,4.5333419)">
      <path
         id="path51403"
         d="m 2.4375,0.078125 c 1.234375,0 2,-0.6875 2,-2.0625 V -4.09375 c 0,-0.28125 -0.21875,-0.5 -0.5,-0.5 -0.28125,0 -0.5,0.21875 -0.5,0.5 v 2.15625 c 0,0.71875 -0.375,1.09375 -0.984375,1.09375 -0.609375,0 -0.984375,-0.390625 -0.984375,-1.125 v -2.125 c 0,-0.28125 -0.21875,-0.5 -0.5,-0.5 -0.265625,0 -0.5,0.21875 -0.5,0.5 v 2.140625 c 0,1.34375 0.75,2.03125 1.96875,2.03125 z m 0,0"
         style="stroke:none"
         inkscape:connector-curvature="0" />
    </g>
    <g
       id="use29839"
       style="fill:#e6e6e6;fill-opacity:1"
       transform="matrix(0.3527778,0,0,0.3527778,351.79151,4.5333419)">
      <path
         id="path51407"
         d="m 1.609375,-0.46875 c 0,0.28125 0.21875,0.5 0.5,0.5 0.28125,0 0.5,-0.21875 0.5,-0.5 V -3.625 H 3.5625 c 0.265625,0 0.46875,-0.203125 0.46875,-0.46875 0,-0.25 -0.203125,-0.453125 -0.46875,-0.453125 H 0.640625 c -0.25,0 -0.453125,0.203125 -0.453125,0.453125 0,0.265625 0.203125,0.46875 0.453125,0.46875 h 0.96875 z m 0,0"
         style="stroke:none"
         inkscape:connector-curvature="0" />
    </g>
    <g
       id="use29853"
       style="fill:#000000;fill-opacity:1"
       transform="matrix(0.3527778,0,0,0.3527778,337.3088,5.0332269)">
      <path
         id="path51383"
         d="m 0.625,-0.359375 c 0,0.21875 0.1875,0.390625 0.40625,0.390625 0.21875,0 0.40625,-0.171875 0.40625,-0.390625 V -4.1875 c 0,-0.21875 -0.1875,-0.390625 -0.40625,-0.390625 -0.21875,0 -0.40625,0.171875 -0.40625,0.390625 z m 0,0"
         style="stroke:none"
         inkscape:connector-curvature="0" />
    </g>
    <g
       id="use29855"
       style="fill:#000000;fill-opacity:1"
       transform="matrix(0.3527778,0,0,0.3527778,338.10908,5.0332269)">
      <path
         id="path51387"
         d="m 0.578125,-0.359375 c 0,0.21875 0.1875,0.390625 0.40625,0.390625 0.21875,0 0.390625,-0.171875 0.390625,-0.390625 V -3.25 l 2.34375,3.03125 c 0.109375,0.140625 0.21875,0.25 0.40625,0.25 h 0.03125 c 0.21875,0 0.390625,-0.1875 0.390625,-0.40625 v -3.8125 c 0,-0.21875 -0.171875,-0.390625 -0.390625,-0.390625 -0.21875,0 -0.390625,0.171875 -0.390625,0.390625 v 2.796875 L 1.484375,-4.34375 C 1.375,-4.484375 1.265625,-4.578125 1.078125,-4.578125 h -0.09375 c -0.21875,0 -0.40625,0.1875 -0.40625,0.40625 z m 0,0"
         style="stroke:none"
         inkscape:connector-curvature="0" />
    </g>
    <g
       id="use30145"
       style="fill:#000000;fill-opacity:1"
       transform="matrix(0.3527778,0,0,0.3527778,348.58206,44.865441)">
      <path
         id="path51363"
         d="M 0.578125,-0.40625 C 0.578125,-0.171875 0.765625,0 0.984375,0 H 3.4375 c 0.203125,0 0.375,-0.15625 0.375,-0.359375 0,-0.203125 -0.171875,-0.375 -0.375,-0.375 H 1.390625 V -4.1875 c 0,-0.21875 -0.1875,-0.390625 -0.40625,-0.390625 -0.21875,0 -0.40625,0.171875 -0.40625,0.390625 z m 0,0"
         style="stroke:none"
         inkscape:connector-curvature="0" />
    </g>
    <g
       id="use30147"
       style="fill:#000000;fill-opacity:1"
       transform="matrix(0.3527778,0,0,0.3527778,350.04962,44.865441)">
      <path
         id="path51367"
         d="m 0.625,-0.359375 c 0,0.21875 0.1875,0.390625 0.40625,0.390625 0.21875,0 0.40625,-0.171875 0.40625,-0.390625 V -4.1875 c 0,-0.21875 -0.1875,-0.390625 -0.40625,-0.390625 -0.21875,0 -0.40625,0.171875 -0.40625,0.390625 z m 0,0"
         style="stroke:none"
         inkscape:connector-curvature="0" />
    </g>
    <g
       id="use30151"
       style="fill:#000000;fill-opacity:1"
       transform="matrix(0.3527778,0,0,0.3527778,350.84986,44.865441)">
      <path
         id="path51359"
         d="m 0.578125,-0.359375 c 0,0.21875 0.1875,0.390625 0.40625,0.390625 0.21875,0 0.390625,-0.171875 0.390625,-0.390625 V -3.25 l 2.34375,3.03125 c 0.109375,0.140625 0.21875,0.25 0.40625,0.25 h 0.03125 c 0.21875,0 0.390625,-0.1875 0.390625,-0.40625 v -3.8125 c 0,-0.21875 -0.171875,-0.390625 -0.390625,-0.390625 -0.21875,0 -0.390625,0.171875 -0.390625,0.390625 v 2.796875 L 1.484375,-4.34375 C 1.375,-4.484375 1.265625,-4.578125 1.078125,-4.578125 h -0.09375 c -0.21875,0 -0.40625,0.1875 -0.40625,0.40625 z m 0,0"
         style="stroke:none"
         inkscape:connector-curvature="0" />
    </g>
    <g
       id="use30155"
       style="fill:#000000;fill-opacity:1"
       transform="matrix(0.3527778,0,0,0.3527778,337.30941,59.873483)">
      <path
         id="path51351"
         d="m 0.625,-0.359375 c 0,0.21875 0.1875,0.390625 0.40625,0.390625 0.21875,0 0.40625,-0.171875 0.40625,-0.390625 V -4.1875 c 0,-0.21875 -0.1875,-0.390625 -0.40625,-0.390625 -0.21875,0 -0.40625,0.171875 -0.40625,0.390625 z m 0,0"
         style="stroke:none"
         inkscape:connector-curvature="0" />
    </g>
    <g
       id="use30157"
       style="fill:#000000;fill-opacity:1"
       transform="matrix(0.3527778,0,0,0.3527778,338.10972,59.873483)">
      <path
         id="path51355"
         d="m 0.578125,-0.359375 c 0,0.21875 0.1875,0.390625 0.40625,0.390625 0.21875,0 0.390625,-0.171875 0.390625,-0.390625 V -3.25 l 2.34375,3.03125 c 0.109375,0.140625 0.21875,0.25 0.40625,0.25 h 0.03125 c 0.21875,0 0.390625,-0.1875 0.390625,-0.40625 v -3.8125 c 0,-0.21875 -0.171875,-0.390625 -0.390625,-0.390625 -0.21875,0 -0.390625,0.171875 -0.390625,0.390625 v 2.796875 L 1.484375,-4.34375 C 1.375,-4.484375 1.265625,-4.578125 1.078125,-4.578125 h -0.09375 c -0.21875,0 -0.40625,0.1875 -0.40625,0.40625 z m 0,0"
         style="stroke:none"
         inkscape:connector-curvature="0" />
    </g>
    <g
       id="use30161"
       style="fill:#000000;fill-opacity:1"
       transform="matrix(0.3527778,0,0,0.3527778,336.20186,44.865441)">
      <path
         id="path51347"
         d="m 0.984375,0 h 2.6875 c 0.1875,0 0.359375,-0.15625 0.359375,-0.359375 0,-0.1875 -0.171875,-0.359375 -0.359375,-0.359375 H 1.390625 V -1.9375 H 3.34375 c 0.1875,0 0.359375,-0.15625 0.359375,-0.34375 0,-0.203125 -0.171875,-0.375 -0.359375,-0.375 H 1.390625 v -1.171875 h 2.25 c 0.1875,0 0.34375,-0.15625 0.34375,-0.359375 0,-0.203125 -0.15625,-0.359375 -0.34375,-0.359375 h -2.65625 c -0.21875,0 -0.40625,0.171875 -0.40625,0.40625 V -0.40625 C 0.578125,-0.171875 0.765625,0 0.984375,0 Z m 0,0"
         style="stroke:none"
         inkscape:connector-curvature="0" />
    </g>
    <g
       id="use30165"
       style="fill:#000000;fill-opacity:1"
       transform="matrix(0.3527778,0,0,0.3527778,337.8132,44.865441)">
      <path
         id="path51339"
         d="m 0.34375,-0.34375 c 0,0.234375 0.1875,0.375 0.375,0.375 0.171875,0 0.28125,-0.078125 0.390625,-0.21875 L 2.3125,-1.75 3.53125,-0.15625 c 0.09375,0.125 0.1875,0.1875 0.359375,0.1875 0.234375,0 0.40625,-0.171875 0.40625,-0.390625 0,-0.109375 -0.0625,-0.21875 -0.125,-0.296875 L 2.828125,-2.328125 4.09375,-3.90625 c 0.078125,-0.109375 0.125,-0.1875 0.125,-0.3125 0,-0.21875 -0.1875,-0.359375 -0.359375,-0.359375 -0.171875,0 -0.28125,0.078125 -0.390625,0.21875 L 2.328125,-2.875 1.1875,-4.390625 c -0.109375,-0.125 -0.203125,-0.1875 -0.375,-0.1875 -0.21875,0 -0.390625,0.171875 -0.390625,0.390625 0,0.109375 0.0625,0.203125 0.125,0.296875 L 1.8125,-2.3125 0.46875,-0.640625 c -0.078125,0.09375 -0.125,0.1875 -0.125,0.296875 z m 0,0"
         style="stroke:none"
         inkscape:connector-curvature="0" />
    </g>
    <g
       id="use30167"
       style="fill:#000000;fill-opacity:1"
       transform="matrix(0.3527778,0,0,0.3527778,339.49632,44.865441)">
      <path
         id="path51343"
         d="m 0.578125,-0.359375 c 0,0.21875 0.1875,0.390625 0.40625,0.390625 0.21875,0 0.40625,-0.171875 0.40625,-0.390625 V -1.46875 H 2.28125 c 1,0 1.828125,-0.53125 1.828125,-1.546875 V -3.03125 C 4.109375,-3.953125 3.4375,-4.546875 2.375,-4.546875 H 0.984375 c -0.21875,0 -0.40625,0.171875 -0.40625,0.40625 z M 1.390625,-2.1875 V -3.828125 H 2.3125 c 0.59375,0 0.984375,0.28125 0.984375,0.8125 V -3 c 0,0.484375 -0.375,0.8125 -0.984375,0.8125 z m 0,0"
         style="stroke:none"
         inkscape:connector-curvature="0" />
    </g>
    <path
       inkscape:connector-curvature="0"
       style="fill:none;stroke:#000000;stroke-width:0.23495;stroke-linecap:round;stroke-linejoin:round;stroke-miterlimit:10;stroke-opacity:1"
       d="m 334.45905,19.081324 h 20.31918"
       id="path33341" />
    <path
       inkscape:connector-curvature="0"
       style="fill:none;stroke:#000000;stroke-width:0.23495;stroke-linecap:round;stroke-linejoin:round;stroke-miterlimit:10;stroke-opacity:1"
       d="m 338.61523,50.886445 h 12.00684"
       id="path34019" />
    <path
       inkscape:connector-curvature="0"
       style="fill:none;stroke:#000000;stroke-width:0.23495;stroke-linecap:round;stroke-linejoin:round;stroke-miterlimit:10;stroke-opacity:1"
       d="m 338.61523,-4.3329251 h 12.00684"
       id="path34021" />
    <g
       inkscape:groupmode="layer"
       id="layer3"
       inkscape:label="Header"
       style="display:inline"
       transform="translate(331.91936,-46.631807)">
      <rect
         style="opacity:1;fill:#666666;fill-opacity:1;stroke:#760000;stroke-width:0.065;stroke-dasharray:none;stroke-opacity:0"
         id="rect1"
         width="24.143229"
         height="0.23623511"
         x="0.57243687"
         y="6.5529308" />
      <rect
         style="fill:#808080;fill-opacity:1;stroke:#760000;stroke-width:0.0428129;stroke-dasharray:none;stroke-opacity:0"
         id="rect1-7"
         width="9.5748568"
         height="0.25842223"
         x="15.121723"
         y="5.8974323" />
      <rect
         style="fill:#999999;fill-opacity:1;stroke:#760000;stroke-width:0.0419061;stroke-dasharray:none;stroke-opacity:0"
         id="rect1-7-8"
         width="9.1414509"
         height="0.25932908"
         x="15.563831"
         y="5.2915401" />
      <rect
         style="fill:#b3b3b3;fill-opacity:1;stroke:#760000;stroke-width:0.0404981;stroke-dasharray:none;stroke-opacity:0"
         id="rect1-7-8-0"
         width="8.4913902"
         height="0.26073706"
         x="16.200367"
         y="4.639883" />
    </g>
    <g
       inkscape:groupmode="layer"
       id="layer4"
       inkscape:label="Param">
      <path
         d="M 7.7197599,18.482578 V 17.045286 H 7.4786034 v -0.239779 h 0.6848845 q 0.3017901,0 0.4519962,0.04272 0.150206,0.04272 0.2508027,0.194304 0.1019748,0.150206 0.1019748,0.355533 0,0.163987 -0.067524,0.2949 -0.066146,0.129536 -0.1653644,0.191547 -0.097841,0.06201 -0.221864,0.08406 -0.1226453,0.02067 -0.37207,0.02067 H 8.0091477 v 0.493337 h 0.2480467 v 0.239779 h -0.778591 v -0.239779 z m 0.2893878,-0.724847 h 0.1653645 q 0.2824976,0 0.3913625,-0.07993 0.108865,-0.08131 0.108865,-0.285254 0,-0.129536 -0.057878,-0.214974 -0.057878,-0.08544 -0.1433159,-0.108865 -0.085438,-0.02343 -0.2852537,-0.02343 H 8.0091477 Z m 2.1552503,0.290766 H 9.4753791 l -0.1474499,0.434081 h 0.2328883 v 0.239779 H 8.8056531 V 18.482578 H 9.0371633 L 9.5608175,17.021859 H 9.3279292 v -0.216352 h 0.9797848 v 0.216352 h -0.238401 l 0.536057,1.460719 h 0.214973 v 0.239779 h -0.75103 v -0.239779 h 0.238401 z m -0.07166,-0.22462 -0.2549371,-0.802018 h -0.026183 l -0.2645831,0.802018 z m 1.004589,0.658701 v -1.437292 h -0.263205 v -0.239779 h 0.778591 q 0.243913,0 0.387228,0.03859 0.143316,0.03721 0.237023,0.159852 0.09371,0.121268 0.09371,0.303169 0,0.380338 -0.395496,0.478179 l 0.338997,0.697286 h 0.234266 v 0.239779 H 12.09365 l -0.436838,-0.895724 h -0.270095 v 0.655945 h 0.24529 v 0.239779 h -0.797883 v -0.239779 z m 0.289388,-0.895724 h 0.225998 q 0.163986,0 0.241156,-0.02067 0.07855,-0.02205 0.128158,-0.08682 0.04961,-0.06614 0.04961,-0.176388 0,-0.09371 -0.05099,-0.158475 -0.04961,-0.06477 -0.124023,-0.0813 -0.07304,-0.01791 -0.224621,-0.01791 h -0.24529 z m 2.452906,0.461643 h -0.689019 l -0.14745,0.434081 h 0.232889 v 0.239779 h -0.755165 v -0.239779 h 0.23151 l 0.523655,-1.460719 h -0.232889 v -0.216352 h 0.979785 v 0.216352 h -0.238401 l 0.536057,1.460719 h 0.214974 v 0.239779 h -0.751031 v -0.239779 h 0.238401 z m -0.07166,-0.22462 -0.254937,-0.802018 h -0.02618 l -0.264583,0.802018 z m 1.004589,0.658701 v -1.437292 h -0.230132 v -0.239779 h 0.655945 l 0.504362,1.31327 0.509874,-1.31327 h 0.662836 v 0.239779 h -0.231511 v 1.437292 h 0.231511 v 0.239779 h -0.722092 v -0.239779 h 0.228754 v -1.437292 l -0.661458,1.696363 h -0.0565 l -0.654568,-1.696363 v 1.437292 h 0.21084 v 0.239779 h -0.677994 v -0.239779 z"
         id="text1-5-3"
         style="display:inline;font-size:2.82222px;font-family:Rockwell;-inkscape-font-specification:'Rockwell, Normal';fill:#782121;stroke-width:0.264583"
         inkscape:label="Param"
         aria-label="PARAM"
         transform="translate(331.91936,-46.631807)" />
    </g>
    <g
       inkscape:groupmode="layer"
       id="layer2"
       inkscape:label="Template"
       style="display:inline"
       transform="translate(-8.3333333e-6)">
      <path
         style="display:inline;font-weight:bold;font-size:4.23333px;font-family:Rockwell;-inkscape-font-specification:'Rockwell, Bold';fill:#782121;stroke-width:0.264583"
         d="m 3.6723326,12.455691 v -0.485758 h 0.43202 v -1.903758 h -0.43202 v 0.669726 h -0.49402 V 9.5804158 h 2.60655 v 1.1554852 h -0.48782 v -0.669726 h -0.44442 v 1.903758 h 0.43202 v 0.485758 z m 3.66489,-0.60358 0.4961,0.159163 q -0.31213,0.489892 -0.97566,0.489892 -0.52916,0 -0.82682,-0.279053 -0.29559,-0.279052 -0.29559,-0.733804 0,-0.463021 0.30593,-0.773079 0.30592,-0.310058 0.77928,-0.310058 0.34313,0 0.59324,0.173632 0.25012,0.173633 0.34727,0.432015 0.0971,0.258382 0.0971,0.576708 h -1.49035 q 0.0145,0.272852 0.17157,0.38654 0.15916,0.113688 0.33486,0.113688 0.22944,0 0.46302,-0.235644 z m -0.12195,-0.620117 q -0.0227,-0.167432 -0.1323,-0.285254 -0.10748,-0.117822 -0.29559,-0.117822 -0.35139,0 -0.40927,0.403076 z m 0.90743,-0.314193 v -0.46302 h 0.96945 v 0.163297 q 0.3266,-0.194303 0.64906,-0.194303 0.3865404,0 0.5994404,0.274919 0.38654,-0.274919 0.80822,-0.274919 0.25012,0 0.40515,0.09302 0.15709,0.09095 0.21497,0.245979 0.0579,0.155029 0.0579,0.469222 v 0.762743 h 0.33073 v 0.460954 h -0.96945 v -1.172021 q 0,-0.314192 -0.27079,-0.314192 -0.2129,0 -0.46095,0.136425 v 0.888834 h 0.33073 v 0.460954 H 9.8177126 v -1.153417 q 0,-0.332796 -0.26045,-0.332796 -0.20257,0 -0.46509,0.136425 v 0.888834 h 0.33073 v 0.460954 h -1.30018 v -0.460954 h 0.33073 v -1.076936 z m 5.5149104,1.98024 v 0.460953 h -1.37666 v -0.460953 h 0.33693 v -1.98024 h -0.28112 v -0.46302 h 0.91984 v 0.250114 q 0.26665,-0.28112 0.59531,-0.28112 0.39687,0 0.62425,0.31626 0.22944,0.314192 0.22944,0.733804 0,0.444417 -0.23564,0.735872 -0.23565,0.291455 -0.62839,0.291455 -0.32039,0 -0.58497,-0.250114 v 0.646989 z m 0.39274,-1.436604 q 0,-0.262516 -0.10956,-0.392741 -0.10748,-0.130224 -0.28525,-0.130224 -0.17983,0 -0.29352,0.134359 -0.11162,0.132291 -0.11162,0.396874 0,0.237712 0.11162,0.382406 0.11162,0.144693 0.29765,0.144693 0.17157,0 0.28112,-0.130224 0.10956,-0.130225 0.10956,-0.405143 z m 0.96324,0.994254 v -0.460954 h 0.3142 V 10.04137 h -0.3142 V 9.5804158 h 0.95292 v 2.4143212 h 0.28732 v 0.460954 z m 3.75171,-0.460954 v 0.460954 h -0.96118 v -0.157096 q -0.25838,0.186035 -0.5457,0.186035 -0.29766,0 -0.5147,-0.169499 -0.21497,-0.169499 -0.21497,-0.454752 0,-0.287321 0.22737,-0.481624 0.22738,-0.194303 0.58705,-0.194303 0.2005,0 0.46095,0.101285 v -0.121956 q 0,-0.152962 -0.10335,-0.250114 -0.10336,-0.09922 -0.27699,-0.09922 -0.21497,0 -0.36793,0.157096 l -0.5147,-0.09302 q 0.22324,-0.473355 0.96945,-0.473355 0.28939,0 0.47955,0.06615 0.19017,0.06408 0.28319,0.167432 0.093,0.103353 0.13023,0.227376 0.0393,0.121956 0.0393,0.398942 v 0.72967 z m -0.96118,-0.279052 q -0.23151,-0.144694 -0.37,-0.144694 -0.10956,0 -0.20051,0.06408 -0.0889,0.06408 -0.0889,0.186035 0,0.109554 0.0723,0.188102 0.0723,0.07855 0.18603,0.07855 0.17777,0 0.40101,-0.208773 z m 1.10174,-0.797884 v -0.46302 h 0.25425 v -0.314192 l 0.63872,-0.4588872 v 0.7730792 h 0.36793 v 0.46302 h -0.36793 v 0.866097 q 0,0.117822 0.0289,0.159163 0.031,0.03927 0.13849,0.03927 0.0889,0 0.2005,-0.04134 v 0.44235 q -0.24598,0.101286 -0.48162,0.101286 -0.52503,0 -0.52503,-0.520898 v -1.045931 z m 3.13986,0.93431 0.49609,0.159163 q -0.31212,0.489892 -0.97565,0.489892 -0.52916,0 -0.82682,-0.279053 -0.29559,-0.279052 -0.29559,-0.733804 0,-0.463021 0.30593,-0.773079 0.30592,-0.310058 0.77928,-0.310058 0.34313,0 0.59324,0.173632 0.25011,0.173633 0.34727,0.432015 0.0971,0.258382 0.0971,0.576708 h -1.49035 q 0.0145,0.272852 0.17157,0.38654 0.15916,0.113688 0.33486,0.113688 0.22944,0 0.46302,-0.235644 z m -0.12196,-0.620117 q -0.0227,-0.167432 -0.13229,-0.285254 -0.10749,-0.117822 -0.29559,-0.117822 -0.3514,0 -0.40927,0.403076 z"
         id="text1-2"
         inkscape:label="NameOfObject"
         aria-label="Template"
         transform="translate(331.91937,-46.631807)" />
    </g>
    <g
       inkscape:groupmode="layer"
       id="layer5"
       inkscape:label="Out"
       transform="translate(331.91936,-46.631807)">
      <path
         d="m 16.198612,35.232738 q 0,-0.365351 0.238745,-0.611331 0.238745,-0.245979 0.622183,-0.245979 0.387056,0 0.630624,0.245979 0.243567,0.24598 0.243567,0.616155 0,0.377409 -0.24839,0.623389 -0.247186,0.244773 -0.629418,0.244773 -0.243568,0 -0.448551,-0.115755 -0.203777,-0.116961 -0.306268,-0.324355 -0.102492,-0.2086 -0.102492,-0.432876 z m 0.276124,0.0012 q 0,0.276124 0.161575,0.46302 0.161575,0.186896 0.424435,0.186896 0.260449,0 0.428052,-0.190513 0.167604,-0.191719 0.167604,-0.456991 0,-0.267684 -0.171221,-0.452168 -0.170015,-0.18569 -0.428053,-0.18569 -0.256831,0 -0.419611,0.182073 -0.162781,0.182072 -0.162781,0.453373 z m 2.073944,-0.622183 v 0.839224 q 0,0.195336 0.01929,0.270095 0.0205,0.07476 0.10008,0.127813 0.07958,0.05185 0.204983,0.05185 0.149517,0 0.229099,-0.04461 0.07958,-0.04582 0.104902,-0.121784 0.02653,-0.07717 0.02653,-0.2713 v -0.851282 h -0.194131 v -0.209806 h 0.655945 v 0.209806 h -0.209806 v 0.876603 q 0,0.17725 -0.01568,0.258037 -0.01447,0.07958 -0.08079,0.167604 -0.06632,0.08682 -0.186896,0.139871 -0.120578,0.05185 -0.293004,0.05185 -0.190514,0 -0.317121,-0.04823 -0.126607,-0.04944 -0.190513,-0.13143 -0.06391,-0.08199 -0.08561,-0.174839 -0.0205,-0.09285 -0.0205,-0.288181 v -0.851282 h -0.207394 v -0.209806 h 0.659562 v 0.209806 z m 1.760441,1.25763 v -1.25763 h -0.34606 v 0.428052 h -0.207394 v -0.637858 h 1.358915 v 0.637858 h -0.207394 v -0.428052 h -0.344853 v 1.25763 h 0.218246 v 0.209806 h -0.68609 v -0.209806 z"
         id="text1-5-6"
         style="display:inline;font-size:2.46944px;font-family:Rockwell;-inkscape-font-specification:'Rockwell, Normal';fill:#782121;stroke-width:0.264583"
         inkscape:label="Out"
         aria-label="OUT" />
    </g>
    <g
       inkscape:groupmode="layer"
       id="layer6"
       inkscape:label="In"
       transform="translate(331.91936,-46.631807)">
      <path
         d="m 5.6073799,35.911032 v -1.25763 h -0.182073 v -0.209806 h 0.61736 v 0.209806 h -0.182073 v 1.25763 h 0.182073 v 0.209806 h -0.61736 v -0.209806 z m 0.765671,0 v -1.25763 H 6.1331005 v -0.209806 h 0.5727461 l 0.7355265,1.30345 V 34.653402 H 7.2038342 v -0.209806 h 0.6885011 v 0.209806 H 7.6451502 v 1.484317 H 7.3847014 L 6.5804453,34.706457 v 1.204575 h 0.2399505 v 0.209806 H 6.1331005 v -0.209806 z"
         id="text1-5"
         style="display:inline;font-size:2.46944px;font-family:Rockwell;-inkscape-font-specification:'Rockwell, Normal';fill:#782121;stroke-width:0.264583"
         inkscape:label="In"
         aria-label="IN" />
    </g>
    <g
       inkscape:groupmode="layer"
       id="layer7"
       inkscape:label="TeseRack"
       transform="translate(331.91936,-46.631807)">
      <path
         style="display:inline;font-size:3.175px;font-family:Rockwell;-inkscape-font-specification:'Rockwell, Normal';fill:#782121;stroke-width:0.264583"
         d="M 1.3501326,5.8774488 V 4.2604928 H 0.90519262 v 0.550354 h -0.26665 V 3.9907428 H 2.3857226 v 0.820104 h -0.26665 v -0.550354 h -0.44338 v 1.616956 h 0.2806 v 0.269751 h -0.88212 v -0.269751 z m 2.61534,-0.406177 h -1.26194 q 0.0279,0.20774 0.16433,0.336414 0.13643,0.128674 0.34882,0.128674 0.30851,0 0.48834,-0.248047 l 0.26045,0.114722 q -0.12712,0.196887 -0.33021,0.293005 -0.20309,0.09457 -0.42478,0.09457 -0.34417,0 -0.58911,-0.21394 -0.2434,-0.215491 -0.2434,-0.57981 0,-0.345715 0.23719,-0.568957 0.23875,-0.223242 0.54726,-0.223242 0.30231,0 0.54725,0.218591 0.2465,0.217041 0.2558,0.648022 z m -0.30386,-0.21394 q -0.031,-0.15813 -0.16433,-0.285254 -0.13332,-0.128674 -0.32711,-0.128674 -0.17673,0 -0.30231,0.116272 -0.12557,0.114721 -0.15348,0.297656 z m 0.55191,0.889868 v -0.514697 h 0.26355 v 0.04961 q 0.014,0.10542 0.11317,0.173633 0.10077,0.06821 0.23719,0.06821 0.14263,0 0.2279,-0.04961 0.0853,-0.04961 0.0853,-0.137976 0,-0.08527 -0.0713,-0.125573 -0.0698,-0.04031 -0.27905,-0.07441 -0.31006,-0.05271 -0.44339,-0.168982 -0.13177,-0.117823 -0.13177,-0.303858 0,-0.187585 0.14417,-0.313159 0.14418,-0.127124 0.37983,-0.127124 0.21239,0 0.36587,0.08682 v -0.06356 h 0.26199 v 0.497644 h -0.26199 v -0.09147 q -0.11938,-0.184485 -0.34727,-0.184485 -0.11627,0 -0.19224,0.05116 -0.0744,0.04961 -0.0744,0.133325 0,0.08527 0.0682,0.117822 0.0698,0.03101 0.29766,0.06666 0.21859,0.03411 0.33021,0.08062 0.11162,0.04496 0.18449,0.151929 0.0744,0.10542 0.0744,0.246497 0,0.209289 -0.16123,0.333313 -0.15968,0.122473 -0.41548,0.122473 -0.24029,0 -0.39222,-0.108521 v 0.08372 z m 3.02617,-0.675928 h -1.26194 q 0.0279,0.20774 0.16433,0.336414 0.13643,0.128674 0.34882,0.128674 0.30851,0 0.48834,-0.248047 l 0.26045,0.114722 q -0.12713,0.196887 -0.33021,0.293005 -0.20309,0.09457 -0.42478,0.09457 -0.34417,0 -0.58912,-0.21394 -0.24339,-0.215491 -0.24339,-0.57981 0,-0.345715 0.23719,-0.568957 0.23875,-0.223242 0.54726,-0.223242 0.3023,0 0.54725,0.218591 0.2465,0.217041 0.2558,0.648022 z m -0.30386,-0.21394 q -0.031,-0.15813 -0.16433,-0.285254 -0.13333,-0.128674 -0.32711,-0.128674 -0.17674,0 -0.30231,0.116272 -0.12557,0.114721 -0.15348,0.297656 z m 0.75809,0.620117 v -1.616956 h -0.2961 v -0.26975 h 0.87591 q 0.27441,0 0.43564,0.04341 0.16123,0.04186 0.26665,0.179834 0.10542,0.136425 0.10542,0.341064 0,0.427881 -0.44494,0.537952 l 0.38137,0.784448 h 0.26355 v 0.269751 h -0.46663 l -0.49145,-1.00769 h -0.30385 v 0.737939 h 0.27595 v 0.269751 h -0.89762 v -0.269751 z m 0.32557,-1.00769 h 0.25424 q 0.18449,0 0.27131,-0.02325 0.0884,-0.0248 0.14417,-0.09767 0.0558,-0.07441 0.0558,-0.198438 0,-0.10542 -0.0574,-0.178283 -0.0558,-0.07286 -0.13952,-0.09147 -0.0822,-0.02015 -0.2527,-0.02015 h -0.27595 z m 2.9005904,1.015442 v 0.261999 h -0.51469 v -0.182935 q -0.21394,0.20774 -0.4774904,0.20774 -0.20464,0 -0.35657,-0.133325 -0.15038,-0.133326 -0.15038,-0.341065 0,-0.209289 0.15968,-0.347266 0.16123,-0.137976 0.38757,-0.137976 0.2108404,0 0.4077304,0.127124 v -0.148828 q 0,-0.114721 -0.0217,-0.176733 -0.0217,-0.06201 -0.10232,-0.111621 -0.0791,-0.04961 -0.20774,-0.04961 -0.2216904,0 -0.3209104,0.176734 l -0.28216,-0.07441 q 0.18759,-0.350366 0.6480304,-0.350366 0.16898,0 0.29145,0.04651 0.12403,0.04496 0.18449,0.117823 0.0605,0.07131 0.0806,0.155029 0.0217,0.08372 0.0217,0.26665 v 0.694532 z m -0.54415,-0.296106 q -0.19068,-0.148829 -0.3860204,-0.148829 -0.12247,0 -0.20464,0.07131 -0.0822,0.07131 -0.0822,0.184485 0,0.10542 0.0713,0.176733 0.0729,0.07131 0.19689,0.07131 0.2139404,0 0.4046204,-0.179834 z m 2.11925,-0.942579 v 0.567408 h -0.26355 q -0.0202,-0.162781 -0.13332,-0.249598 -0.11162,-0.08682 -0.26045,-0.08682 -0.19844,0 -0.32246,0.141077 -0.12403,0.139526 -0.12403,0.367419 0,0.21239 0.11783,0.375171 0.11782,0.161231 0.34106,0.161231 0.31006,0 0.44958,-0.294556 l 0.2434,0.114722 q -0.20154,0.448034 -0.70538,0.448034 -0.35657,0 -0.56121,-0.243396 -0.20464,-0.243396 -0.20464,-0.561206 0,-0.339514 0.22325,-0.559656 0.22324,-0.221691 0.51469,-0.221691 0.2496,0 0.42168,0.147277 v -0.10542 z m 0.46664,1.238685 v -1.632459 h -0.26975 v -0.261999 h 0.56431 v 1.347204 l 0.5612,-0.448035 h -0.2496 v -0.243396 h 0.82941 v 0.243396 h -0.22944 l -0.56276,0.468189 0.52865,0.5271 h 0.26355 v 0.261999 h -0.38602 l -0.75499,-0.754993 v 0.492994 h 0.25889 v 0.261999 h -0.8232 v -0.261999 z"
         id="text1"
         inkscape:label="TeseRack"
         aria-label="TeseRack" />
    </g>
  </g>
  <g
     inkscape:groupmode="layer"
     id="components"
     inkscape:label="components">
    <circle
       style="fill:#ff00ff"
       id="path3"
       cx="12.204613"
       cy="35.152206"
       r="0.95005965"
       inkscape:label="light" />
    <circle
       style="fill:#ff0000"
       id="path4"
       cx="11.839205"
       cy="24.774632"
       r="3.1425049" />
    <circle
       style="fill:#00ff00"
       id="path5"
       cx="6.7234988"
       cy="42.241116"
       r="3.1425049" />
    <circle
       style="fill:#0000ff"
       id="path6"
       cx="18.708866"
       cy="42.314198"
       r="3.2886679" />
  </g>
</svg>
