<?xml version="1.0" encoding="UTF-8" standalone="no"?>
<!-- Created with Inkscape (http://www.inkscape.org/) -->

<svg
   width="25.4mm"
   height="128.49931mm"
   viewBox="0 0 25.399999 128.49931"
   version="1.1"
   id="svg47416"
   inkscape:version="1.3.2 (091e20e, 2023-11-25, custom)"
   sodipodi:docname="NLMmk3.svg"
   xmlns:inkscape="http://www.inkscape.org/namespaces/inkscape"
   xmlns:sodipodi="http://sodipodi.sourceforge.net/DTD/sodipodi-0.dtd"
   xmlns="http://www.w3.org/2000/svg"
   xmlns:svg="http://www.w3.org/2000/svg"
   xmlns:rdf="http://www.w3.org/1999/02/22-rdf-syntax-ns#"
   xmlns:cc="http://creativecommons.org/ns#"
   xmlns:dc="http://purl.org/dc/elements/1.1/">
  <defs
     id="defs47410">
    <clipPath
       id="clip465">
      <path
         d="M 0.03125,0.253906 H 22.710938 V 24.992188 H 0.03125 Z m 0,0"
         id="path3835"
         inkscape:connector-curvature="0" />
    </clipPath>
    <clipPath
       id="clip467">
      <path
         d="m 0.246094,0.488281 h 16.25 v 15.101563 h -16.25 z m 0,0"
         id="path3851"
         inkscape:connector-curvature="0" />
    </clipPath>
    <clipPath
       id="clip469">
      <path
         d="M 0.03125,0.828125 H 22.710938 V 25.570312 H 0.03125 Z m 0,0"
         id="path3867"
         inkscape:connector-curvature="0" />
    </clipPath>
    <clipPath
       id="clip471">
      <path
         d="m 0.246094,0.0664062 h 16.25 V 15.164062 h -16.25 z m 0,0"
         id="path3883"
         inkscape:connector-curvature="0" />
    </clipPath>
    <clipPath
       id="clip473">
      <path
         d="M 0.996094,0.253906 H 23.675781 V 24.992188 H 0.996094 Z m 0,0"
         id="path3899"
         inkscape:connector-curvature="0" />
    </clipPath>
    <clipPath
       id="clip475">
      <path
         d="m 0.210938,0.488281 h 16.25 v 15.101563 h -16.25 z m 0,0"
         id="path3915"
         inkscape:connector-curvature="0" />
    </clipPath>
    <clipPath
       id="clip477">
      <path
         d="M 0.996094,0.828125 H 23.675781 V 25.570312 H 0.996094 Z m 0,0"
         id="path3931"
         inkscape:connector-curvature="0" />
    </clipPath>
    <clipPath
       id="clip479">
      <path
         d="m 0.210938,0.0664062 h 16.25 V 15.164062 h -16.25 z m 0,0"
         id="path3947"
         inkscape:connector-curvature="0" />
    </clipPath>
    <clipPath
       id="clip481">
      <path
         d="M 0.03125,0.382812 H 22.710938 V 25.121094 H 0.03125 Z m 0,0"
         id="path3963"
         inkscape:connector-curvature="0" />
    </clipPath>
    <clipPath
       id="clip483">
      <path
         d="m 0.246094,0.617188 h 16.25 V 15.71875 h -16.25 z m 0,0"
         id="path3979"
         inkscape:connector-curvature="0" />
    </clipPath>
    <clipPath
       id="clip485">
      <path
         d="M 0.03125,0.957031 H 22.710938 V 25.699219 H 0.03125 Z m 0,0"
         id="path3995"
         inkscape:connector-curvature="0" />
    </clipPath>
    <clipPath
       id="clip487">
      <path
         d="m 0.246094,0.195312 h 16.25 v 15.097657 h -16.25 z m 0,0"
         id="path4011"
         inkscape:connector-curvature="0" />
    </clipPath>
    <clipPath
       id="clip489">
      <path
         d="M 0.996094,0.382812 H 23.675781 V 25.121094 H 0.996094 Z m 0,0"
         id="path4027"
         inkscape:connector-curvature="0" />
    </clipPath>
    <clipPath
       id="clip491">
      <path
         d="m 0.210938,0.617188 h 16.25 V 15.71875 h -16.25 z m 0,0"
         id="path4043"
         inkscape:connector-curvature="0" />
    </clipPath>
    <clipPath
       id="clip493">
      <path
         d="M 0.996094,0.957031 H 23.675781 V 25.699219 H 0.996094 Z m 0,0"
         id="path4059"
         inkscape:connector-curvature="0" />
    </clipPath>
    <clipPath
       id="clip495">
      <path
         d="m 0.210938,0.195312 h 16.25 v 15.097657 h -16.25 z m 0,0"
         id="path4075"
         inkscape:connector-curvature="0" />
    </clipPath>
    <clipPath
       id="clip465-3">
      <path
         inkscape:connector-curvature="0"
         d="M 0.03125,0.253906 H 22.710938 V 24.992188 H 0.03125 Z m 0,0"
         id="path3835-6" />
    </clipPath>
    <clipPath
       id="clip467-7">
      <path
         inkscape:connector-curvature="0"
         d="m 0.246094,0.488281 h 16.25 v 15.101563 h -16.25 z m 0,0"
         id="path3851-5" />
    </clipPath>
    <clipPath
       id="clip469-3">
      <path
         inkscape:connector-curvature="0"
         d="M 0.03125,0.828125 H 22.710938 V 25.570312 H 0.03125 Z m 0,0"
         id="path3867-5" />
    </clipPath>
    <clipPath
       id="clip471-6">
      <path
         inkscape:connector-curvature="0"
         d="m 0.246094,0.0664062 h 16.25 V 15.164062 h -16.25 z m 0,0"
         id="path3883-2" />
    </clipPath>
    <clipPath
       id="clip473-9">
      <path
         inkscape:connector-curvature="0"
         d="M 0.996094,0.253906 H 23.675781 V 24.992188 H 0.996094 Z m 0,0"
         id="path3899-1" />
    </clipPath>
    <clipPath
       id="clip475-2">
      <path
         inkscape:connector-curvature="0"
         d="m 0.210938,0.488281 h 16.25 v 15.101563 h -16.25 z m 0,0"
         id="path3915-7" />
    </clipPath>
    <clipPath
       id="clip477-0">
      <path
         inkscape:connector-curvature="0"
         d="M 0.996094,0.828125 H 23.675781 V 25.570312 H 0.996094 Z m 0,0"
         id="path3931-9" />
    </clipPath>
    <clipPath
       id="clip479-3">
      <path
         inkscape:connector-curvature="0"
         d="m 0.210938,0.0664062 h 16.25 V 15.164062 h -16.25 z m 0,0"
         id="path3947-6" />
    </clipPath>
    <clipPath
       id="clip481-0">
      <path
         inkscape:connector-curvature="0"
         d="M 0.03125,0.382812 H 22.710938 V 25.121094 H 0.03125 Z m 0,0"
         id="path3963-6" />
    </clipPath>
    <clipPath
       id="clip483-2">
      <path
         inkscape:connector-curvature="0"
         d="m 0.246094,0.617188 h 16.25 V 15.71875 h -16.25 z m 0,0"
         id="path3979-6" />
    </clipPath>
    <clipPath
       id="clip485-1">
      <path
         inkscape:connector-curvature="0"
         d="M 0.03125,0.957031 H 22.710938 V 25.699219 H 0.03125 Z m 0,0"
         id="path3995-8" />
    </clipPath>
    <clipPath
       id="clip487-7">
      <path
         inkscape:connector-curvature="0"
         d="m 0.246094,0.195312 h 16.25 v 15.097657 h -16.25 z m 0,0"
         id="path4011-9" />
    </clipPath>
    <clipPath
       id="clip489-2">
      <path
         inkscape:connector-curvature="0"
         d="M 0.996094,0.382812 H 23.675781 V 25.121094 H 0.996094 Z m 0,0"
         id="path4027-0" />
    </clipPath>
    <clipPath
       id="clip491-2">
      <path
         inkscape:connector-curvature="0"
         d="m 0.210938,0.617188 h 16.25 V 15.71875 h -16.25 z m 0,0"
         id="path4043-3" />
    </clipPath>
    <clipPath
       id="clip493-7">
      <path
         inkscape:connector-curvature="0"
         d="M 0.996094,0.957031 H 23.675781 V 25.699219 H 0.996094 Z m 0,0"
         id="path4059-5" />
    </clipPath>
    <clipPath
       id="clip495-9">
      <path
         inkscape:connector-curvature="0"
         d="m 0.210938,0.195312 h 16.25 v 15.097657 h -16.25 z m 0,0"
         id="path4075-2" />
    </clipPath>
  </defs>
  <sodipodi:namedview
     id="base"
     pagecolor="#ffffff"
     bordercolor="#666666"
     borderopacity="1.0"
     inkscape:pageopacity="0.0"
     inkscape:pageshadow="2"
     inkscape:zoom="3.6203867"
     inkscape:cx="55.933252"
     inkscape:cy="104.82306"
     inkscape:document-units="mm"
     inkscape:current-layer="components"
     showgrid="false"
     fit-margin-top="0"
     fit-margin-left="0"
     fit-margin-right="0"
     fit-margin-bottom="0"
     inkscape:snap-bbox="true"
     inkscape:bbox-nodes="true"
     inkscape:snap-nodes="false"
     inkscape:snap-others="false"
     inkscape:window-width="1920"
     inkscape:window-height="1017"
     inkscape:window-x="-8"
     inkscape:window-y="-8"
     inkscape:window-maximized="1"
     inkscape:showpageshadow="2"
     inkscape:pagecheckerboard="0"
     inkscape:deskcolor="#d1d1d1" />
  <metadata
     id="metadata47413">
    <rdf:RDF>
      <cc:Work
         rdf:about="">
        <dc:format>image/svg+xml</dc:format>
        <dc:type
           rdf:resource="http://purl.org/dc/dcmitype/StillImage" />
      </cc:Work>
    </rdf:RDF>
  </metadata>
  <g
     inkscape:label="Layer 1"
     inkscape:groupmode="layer"
     id="layer1"
     transform="translate(-331.91936,46.631807)"
     style="display:inline">
    <path
       inkscape:connector-curvature="0"
       style="fill:#e6e6e6;fill-opacity:1;fill-rule:nonzero;stroke:none;stroke-width:0.352778"
       d="m 332.01168,-46.5381 h 25.21395 V 81.775178 h -25.21395 z m 0,0"
       id="path26769" />
    <path
       inkscape:connector-curvature="0"
       style="fill:#ababab;fill-opacity:1;fill-rule:nonzero;stroke:none;stroke-width:0.352778"
       d="m 357.31936,-46.631807 h -25.4 V 81.867508 h 25.4 z M 357.13193,81.681468 H 332.10538 V -46.444394 h 25.02655 z m 0,0"
       id="path26771" />
    <path
       inkscape:connector-curvature="0"
       style="fill:none;stroke:#000000;stroke-width:0.23495;stroke-linecap:round;stroke-linejoin:round;stroke-miterlimit:10;stroke-opacity:1"
       d="m 334.76911,-0.34901464 h 20.31918"
       id="path33341" />
    <path
       inkscape:connector-curvature="0"
       style="fill:none;stroke:#000000;stroke-width:0.23495;stroke-linecap:round;stroke-linejoin:round;stroke-miterlimit:10;stroke-opacity:1"
       d="m 338.61523,50.886445 h 12.00684"
       id="path34019" />
    <path
       inkscape:connector-curvature="0"
       style="display:inline;fill:#800000;stroke:#5a0000;stroke-width:0.3;stroke-linecap:round;stroke-linejoin:round;stroke-miterlimit:10;stroke-opacity:1;stroke-dasharray:none"
       d="m 334.14374,-30.679212 h 20.9667"
       id="path34021-8" />
    <path
       inkscape:connector-curvature="0"
       style="display:inline;fill:#800000;stroke:#5a0000;stroke-width:0.249889;stroke-linecap:round;stroke-linejoin:round;stroke-miterlimit:10;stroke-dasharray:none;stroke-opacity:1"
       d="m 336.94715,-21.757733 h 14.54732"
       id="path34021-8-4" />
    <path
       inkscape:connector-curvature="0"
       style="display:inline;fill:#800000;stroke:#5a0000;stroke-width:0.103938;stroke-linecap:round;stroke-linejoin:round;stroke-miterlimit:10;stroke-dasharray:none;stroke-opacity:1"
       d="M 344.40387,-21.755592 V -24.27233"
       id="path34021-8-4-3" />
    <g
       inkscape:groupmode="layer"
       id="layer3"
       inkscape:label="Header"
       style="display:inline"
       transform="translate(331.91936,-46.631807)">
      <rect
         style="opacity:1;fill:#666666;fill-opacity:1;stroke:#760000;stroke-width:0.0649695;stroke-dasharray:none;stroke-opacity:0"
         id="rect1"
         width="24.11742"
         height="0.23626566"
         x="0.57242161"
         y="6.5529156" />
      <rect
         style="fill:#808080;fill-opacity:1;stroke:#760000;stroke-width:0.0443178;stroke-dasharray:none;stroke-opacity:0"
         id="rect1-7"
         width="9.3251743"
         height="0.28432289"
         x="15.357735"
         y="5.9224553" />
      <rect
         style="fill:#999999;fill-opacity:1;stroke:#760000;stroke-width:0.0417487;stroke-dasharray:none;stroke-opacity:0"
         id="rect1-7-8"
         width="9.0674191"
         height="0.25948647"
         x="15.587374"
         y="5.2085953" />
      <rect
         style="fill:#b3b3b3;fill-opacity:1;stroke:#760000;stroke-width:0.0402044;stroke-dasharray:none;stroke-opacity:0"
         id="rect1-7-8-0"
         width="8.8787022"
         height="0.24576055"
         x="15.73624"
         y="4.5430741" />
      <path
         style="font-style:italic;font-size:3.52778px;font-family:Rockwell;-inkscape-font-specification:'Rockwell, Italic';fill:#782121;stroke:#760000;stroke-width:0.065;stroke-opacity:0"
         d="M 1.1710794,5.9252635 1.6017167,4.090749 H 1.0918422 L 0.95403829,4.6970862 H 0.66292753 L 0.87135594,3.8099735 H 2.8143911 L 2.6059626,4.6970862 H 2.3217421 L 2.4629911,4.090749 H 1.9496715 L 1.5190343,5.9252635 H 1.7429657 L 1.6775088,6.206039 H 0.89202653 L 0.95403829,5.9252635 Z M 4.0287879,5.4481175 H 2.7196508 q -0.012058,0.049954 -0.012058,0.09474 0,0.2067059 0.1188559,0.3221167 0.1188559,0.1154108 0.298001,0.1154108 0.2497695,0 0.423747,-0.2377118 L 3.8737585,5.8821998 Q 3.7755732,6.0458419 3.5688674,6.1509174 3.3621615,6.2542703 3.1278949,6.2542703 q -0.3600128,0 -0.5598284,-0.2084284 -0.1998157,-0.2084284 -0.1998157,-0.5339901 0,-0.2601049 0.1309137,-0.492649 Q 2.6318008,4.7866587 2.852287,4.640242 3.0727733,4.4921028 3.3346007,4.4921028 q 0.316949,0 0.5167647,0.2084285 0.2015382,0.2067058 0.2015382,0.5408803 0,0.1085206 -0.024116,0.2067059 z M 3.7342321,5.2138508 q 0.00517,-0.053399 0.00517,-0.086127 0,-0.1378039 -0.1102431,-0.2497696 Q 3.520636,4.7642656 3.3397684,4.7642656 q -0.1843128,0 -0.3341745,0.1223009 -0.1481392,0.1205784 -0.2239314,0.3272843 z m 0.4771461,0.5271 h 0.282498 q 0,0.1171333 0.1033529,0.1808676 0.1033529,0.063734 0.2704402,0.063734 0.1533068,0 0.2359892,-0.062012 0.084405,-0.062012 0.084405,-0.1515843 0,-0.084405 -0.072347,-0.1464166 Q 5.0433693,5.5618057 4.8607791,5.4911812 4.6764663,5.4188341 4.5817262,5.36199 4.486986,5.3051459 4.4249742,5.2052381 4.3629625,5.1053302 4.3629625,4.9933646 q 0,-0.1929255 0.160197,-0.3358971 0.160197,-0.1446941 0.4409725,-0.1446941 0.2618274,0 0.4306372,0.1446941 L 5.4292202,4.5386117 H 5.7065506 L 5.59803,5.0019773 H 5.3189771 Q 5.315532,4.8745087 5.2035663,4.8211097 5.0916006,4.7677107 4.9589644,4.7677107 q -0.1378039,0 -0.2170412,0.055121 -0.077515,0.055122 -0.077515,0.1378039 0,0.067179 0.046509,0.1119657 0.046509,0.043064 0.1774226,0.093018 0.3720705,0.1429716 0.4909264,0.2721628 0.1188559,0.1291911 0.1188559,0.3117813 0,0.2170412 -0.1688098,0.3514 -0.1670873,0.1326362 -0.492649,0.1326362 -0.3031686,0 -0.4289147,-0.1360813 L 4.383633,6.206039 H 4.101135 Z M 7.4807761,5.4481175 H 6.171639 q -0.012058,0.049954 -0.012058,0.09474 0,0.2067059 0.1188558,0.3221167 0.1188559,0.1154108 0.298001,0.1154108 0.2497696,0 0.423747,-0.2377118 L 7.3257467,5.8821998 Q 7.2275614,6.0458419 7.0208556,6.1509174 6.8141497,6.2542703 6.5798831,6.2542703 q -0.3600127,0 -0.5598284,-0.2084284 Q 5.820239,5.8374135 5.820239,5.5118518 q 0,-0.2601049 0.1309137,-0.492649 Q 6.083789,4.7866587 6.3042753,4.640242 6.5247615,4.4921028 6.7865889,4.4921028 q 0.316949,0 0.5167647,0.2084285 0.2015382,0.2067058 0.2015382,0.5408803 0,0.1085206 -0.024116,0.2067059 z M 7.1862203,5.2138508 q 0.00517,-0.053399 0.00517,-0.086127 0,-0.1378039 -0.1102431,-0.2497696 -0.1085206,-0.1136882 -0.2893882,-0.1136882 -0.1843127,0 -0.3341745,0.1223009 Q 6.3094429,5.0071449 6.2336508,5.2138508 Z M 7.8442335,5.9252635 8.2748707,4.090749 H 8.0440492 L 8.1095061,3.8099735 H 8.812306 q 0.2980009,0 0.4065215,0.01378 0.1102431,0.012058 0.2273765,0.079237 0.1188558,0.067179 0.1843127,0.1894804 0.067179,0.122301 0.067179,0.2876657 0,0.266995 -0.1670872,0.4495852 Q 9.3635216,5.01059 9.0586305,5.0536538 L 9.2653363,5.9252635 H 9.5254412 L 9.4582618,6.206039 H 8.9983413 L 8.743404,5.0726018 H 8.3920041 L 8.1921884,5.9252635 H 8.4178423 L 8.3523854,6.206039 H 7.578961 L 7.6444179,5.9252635 Z M 8.4574609,4.7918263 h 0.1843127 q 0.2911108,0 0.4151343,-0.027561 0.1257461,-0.027561 0.2049833,-0.1257461 0.08096,-0.098185 0.08096,-0.2428794 0,-0.1240235 -0.063734,-0.1980931 Q 9.217105,4.1217548 9.1258099,4.1062519 9.0362373,4.090749 8.7795776,4.090749 h -0.156752 z m 2.6854541,1.1334372 h 0.208428 l -0.06029,0.2807755 h -0.508152 l 0.0534,-0.2325441 q -0.239434,0.2601048 -0.539158,0.2601048 -0.194648,0 -0.3496771,-0.1326362 Q 9.7941591,5.9683272 9.7941591,5.747841 q 0,-0.2514922 0.2032608,-0.4151343 0.2032611,-0.1653647 0.5029841,-0.1653647 0.232544,0 0.465088,0.122301 l 0.04306,-0.1860353 q 0.02239,-0.096463 0.02239,-0.1378039 0,-0.1085206 -0.08613,-0.1653647 -0.08613,-0.058567 -0.210151,-0.058567 -0.244602,0 -0.409967,0.2377118 L 10.062877,4.8607283 q 0.10163,-0.156752 0.298001,-0.2618274 0.19637,-0.1067981 0.428914,-0.1067981 0.261828,0 0.406522,0.1136883 0.144694,0.1136882 0.144694,0.2945558 0,0.1119657 -0.0379,0.2842206 z m -0.227377,-0.4082441 -0.07407,-0.034451 q -0.172255,-0.075792 -0.316949,-0.075792 -0.189481,0 -0.304891,0.098185 -0.115411,0.096463 -0.115411,0.2325441 0,0.1154107 0.07924,0.1825901 0.08096,0.065457 0.211874,0.065457 0.20326,0 0.458198,-0.2187637 z m 1.963706,0.1843127 0.229099,0.1670873 q -0.289388,0.3858509 -0.733806,0.3858509 -0.315226,0 -0.513319,-0.1998156 -0.196371,-0.1998157 -0.196371,-0.4909265 0,-0.408244 0.273886,-0.7389734 0.273885,-0.332452 0.649401,-0.332452 0.289388,0 0.461643,0.1877579 l 0.03445,-0.141249 h 0.275607 L 13.24098,5.0398734 h -0.275608 q -0.02756,-0.1395265 -0.134359,-0.2135961 -0.105076,-0.07407 -0.237712,-0.07407 -0.241157,0 -0.416857,0.2342667 -0.1757,0.2325441 -0.1757,0.5408803 0,0.2084284 0.108521,0.3376196 0.108521,0.1274686 0.310059,0.1274686 0.256659,0 0.45992,-0.2911108 z m 0.60806,0.2239314 0.430637,-1.8345145 h -0.241156 l 0.06718,-0.2807755 h 0.54777 L 13.936889,5.3172037 14.66725,4.7883812 H 14.4037 l 0.05857,-0.2497695 h 0.833713 l -0.05857,0.2497695 h -0.167087 l -0.778593,0.5684412 0.375516,0.5684411 h 0.268718 L 14.870511,6.206039 H 14.494995 L 13.936889,5.3568224 13.799086,5.9252635 h 0.254937 l -0.06718,0.2807755 h -0.763089 l 0.06546,-0.2807755 z"
         id="text2"
         aria-label="TeseRack" />
      <g
         id="text3"
         style="font-style:italic;font-weight:bold;font-size:3.52777px;font-family:Rockwell;-inkscape-font-specification:'Rockwell, Bold Italic';fill:#782121;stroke:#760000;stroke-width:0.0649999;stroke-opacity:0"
         aria-label="Novation &#10;         LPmk3">
        <path
           style="stroke-width:0.065"
           d="m 0.80959742,9.8185215 0.0895723,-0.373792 H 1.124823 L 1.5020601,7.7962549 H 1.2764068 l 0.08785,-0.3737921 H 2.2565344 L 2.8043033,9.0812727 3.0971358,7.7962549 H 2.8714826 l 0.08785,-0.3737921 h 0.8629945 l -0.08785,0.3737921 H 3.5088238 L 3.0402919,9.839192 H 2.5149159 L 1.8896325,7.9099428 1.5399561,9.4447295 h 0.2514914 l -0.08785,0.373792 z m 3.68452148,0.049954 q -0.3221157,0 -0.5236533,-0.1929249 -0.1998151,-0.1946475 -0.1998151,-0.5029829 0,-0.4478614 0.2962775,-0.7561968 0.2980001,-0.3083354 0.7303587,-0.3083354 0.3376186,0 0.5322661,0.215318 0.1946474,0.2135955 0.1946474,0.5150407 0,0.4289134 -0.2962775,0.7303586 -0.294555,0.2997227 -0.7338038,0.2997227 z M 4.750778,8.4818274 q -0.2118729,0 -0.3376186,0.2273758 -0.1240232,0.2256532 -0.1240232,0.4805898 0,0.139526 0.065457,0.2222081 0.065457,0.082682 0.177422,0.082682 0.2084278,0 0.3410637,-0.2256532 0.1326359,-0.2256533 0.1326359,-0.4805898 0,-0.1395261 -0.068902,-0.2222082 Q 4.867911,8.4818274 4.750778,8.4818274 Z M 6.0323508,9.839192 5.8032524,8.505943 H 5.6206628 l 0.08096,-0.3565666 H 6.5766747 L 6.49227,8.505943 H 6.2907324 L 6.3820272,9.3000358 6.8402239,8.505943 H 6.6404088 l 0.08096,-0.3565666 H 7.6033109 L 7.5223513,8.505943 H 7.2966981 L 6.49227,9.839192 Z M 9.2397278,9.4619549 9.1363751,9.8185215 H 8.3681205 L 8.3991263,9.6841631 Q 8.1562476,9.839192 7.9478198,9.839192 q -0.2170405,0 -0.3600117,-0.1309133 -0.1412486,-0.1309134 -0.1412486,-0.3307285 0,-0.2738844 0.2239307,-0.4426938 0.2239307,-0.1705318 0.6235609,-0.1705318 0.089572,0 0.3066129,0.048231 l 0.027561,-0.1378035 q 0.00517,-0.02067 0.00517,-0.039618 0,-0.089572 -0.084405,-0.1446937 -0.082682,-0.055121 -0.2067052,-0.055121 -0.1670868,0 -0.3910175,0.1136879 L 7.6980509,8.2975152 Q 8.052895,8.1080353 8.4197968,8.1080353 q 0.3410638,0 0.5305436,0.136081 0.1912024,0.136081 0.1912024,0.3737921 0,0.072347 -0.018948,0.1533064 L 8.9606757,9.4619549 Z m -0.7699772,-0.08785 0.063734,-0.2756071 q -0.1240231,-0.034451 -0.2532139,-0.034451 -0.1601966,0 -0.2601042,0.075792 -0.099907,0.075792 -0.099907,0.1912024 0,0.079237 0.056844,0.1343584 0.058566,0.053399 0.1395261,0.053399 0.1653642,0 0.3531215,-0.1446936 z m 1.9688674,0.00689 -0.0913,0.3841273 q -0.220485,0.1033527 -0.4306357,0.1033527 -0.1619191,0 -0.2618267,-0.093017 -0.098185,-0.09474 -0.098185,-0.2463238 0,-0.1119653 0.029283,-0.2325434 L 9.7685485,8.505943 h -0.19637 l 0.08096,-0.3565666 h 0.19637 L 9.9063521,7.9064977 10.516133,7.4827519 10.361104,8.1493764 h 0.225653 L 10.505797,8.505943 H 10.280144 L 10.101,9.2793652 q -0.01378,0.058566 -0.01378,0.09474 0,0.08785 0.105075,0.08785 0.09991,0 0.246324,-0.08096 z m 1.012856,-1.4434918 q -0.11541,0 -0.198092,-0.082682 -0.08096,-0.082682 -0.08096,-0.1980926 0,-0.117133 0.08096,-0.1980925 0.08268,-0.08096 0.198092,-0.08096 0.117133,0 0.199815,0.082682 0.08268,0.08096 0.08268,0.19637 0,0.1154105 -0.0844,0.1980926 -0.08268,0.082682 -0.198093,0.082682 z M 10.79174,9.4619549 11.013948,8.505943 h -0.225653 l 0.08096,-0.3565666 h 0.737249 l -0.303168,1.3125785 h 0.225654 l -0.08096,0.3565666 h -0.919838 l 0.08096,-0.3565666 z m 1.789723,0.4065204 q -0.322116,0 -0.523653,-0.1929249 -0.199815,-0.1946475 -0.199815,-0.5029829 0,-0.4478614 0.296277,-0.7561968 0.298,-0.3083354 0.730359,-0.3083354 0.337618,0 0.532266,0.215318 0.194647,0.2135955 0.194647,0.5150407 0,0.4289134 -0.296277,0.7303586 -0.294555,0.2997227 -0.733804,0.2997227 z m 0.256659,-1.3866479 q -0.211873,0 -0.337618,0.2273758 -0.124024,0.2256532 -0.124024,0.4805898 0,0.139526 0.06546,0.2222081 0.06546,0.082682 0.177422,0.082682 0.208428,0 0.341064,-0.2256532 0.132636,-0.2256533 0.132636,-0.4805898 0,-0.1395261 -0.0689,-0.2222082 -0.0689,-0.084405 -0.186035,-0.084405 z m 0.850937,1.3366941 0.08096,-0.3565666 H 13.95433 L 14.176539,8.505943 h -0.251492 l 0.08096,-0.3565666 h 0.763087 l -0.04995,0.2084278 q 0.237711,-0.1464162 0.346231,-0.1877573 0.110243,-0.041341 0.229099,-0.041341 0.168809,0 0.275607,0.1085202 0.10852,0.1067978 0.10852,0.2842198 0,0.070624 -0.01723,0.1464162 l -0.184312,0.7940928 h 0.227376 l -0.08268,0.3565666 h -0.737249 l 0.244601,-1.0541969 q 0.01206,-0.051676 0.01206,-0.091295 0,-0.1429712 -0.1223,-0.1429712 -0.125746,0 -0.380683,0.1843122 l -0.172254,0.7475841 h 0.211873 l -0.08268,0.3565666 z"
           id="path10" />
        <path
           style="stroke-width:0.065"
           d="m 8.7470803,14.228234 0.086127,-0.373792 H 9.0588607 L 9.4395429,12.205967 H 9.1536006 l 0.08785,-0.373792 h 1.1179306 l -0.08785,0.373792 h -0.225654 l -0.3772367,1.648475 h 0.6700697 l 0.168809,-0.737249 h 0.459919 l -0.258381,1.111041 z m 2.1359547,0 0.0844,-0.373792 h 0.225654 l 0.380682,-1.648475 h -0.268717 l 0.08785,-0.373792 h 1.026636 q 0.430636,0 0.652844,0.186035 0.222208,0.184312 0.222208,0.523654 0,0.351398 -0.242878,0.582219 -0.242879,0.229099 -0.787203,0.229099 h -0.347954 l -0.117133,0.50126 h 0.289388 l -0.08441,0.373792 z m 1.117931,-1.248844 h 0.204983 q 0.225653,0 0.347953,-0.134359 0.124024,-0.134358 0.124024,-0.341063 0,-0.298001 -0.335896,-0.298001 h -0.16192 z m 1.090369,1.248844 0.08096,-0.356567 h 0.239434 l 0.222208,-0.956011 h -0.299723 l 0.08096,-0.356567 h 0.811318 l -0.0534,0.232543 q 0.39963,-0.253214 0.645954,-0.253214 0.329006,0 0.430636,0.299723 0.465087,-0.299723 0.726914,-0.299723 0.189479,0 0.31867,0.115411 0.130914,0.113688 0.130914,0.299723 0,0.06373 -0.0155,0.130913 l -0.180867,0.787202 h 0.261826 l -0.08096,0.356567 h -0.773423 l 0.232544,-0.990463 q 0.01378,-0.05684 0.01378,-0.105075 0,-0.184312 -0.168809,-0.184312 -0.170532,0 -0.468532,0.215318 l -0.168809,0.707965 h 0.260104 l -0.08096,0.356567 h -0.7717 l 0.229099,-0.990463 q 0.01378,-0.06373 0.01378,-0.113688 0,-0.175699 -0.168809,-0.175699 -0.201538,0 -0.470255,0.215318 l -0.165364,0.707965 h 0.260104 l -0.08096,0.356567 z m 3.464037,0 0.08096,-0.356567 h 0.184312 l 0.387572,-1.682925 h -0.232543 l 0.0844,-0.356567 h 0.744139 l -0.353121,1.521007 0.592555,-0.518486 h -0.27733 l 0.06374,-0.275607 h 0.859549 l -0.05168,0.322116 h -0.153307 l -0.502983,0.447861 0.292833,0.542601 h 0.21015 l -0.0844,0.356567 h -0.485758 l -0.463364,-0.868162 -0.122301,0.528821 h 0.18259 l -0.07751,0.339341 z m 2.227249,-0.780312 h 0.444417 q -0.01895,0.0844 -0.01895,0.156751 0,0.142971 0.06546,0.223931 0.06546,0.07924 0.179145,0.07924 0.155029,0 0.246324,-0.158474 0.09302,-0.158474 0.09302,-0.318671 0,-0.272162 -0.329006,-0.272162 h -0.04306 l 0.08613,-0.358289 q 0.306612,-0.01206 0.408243,-0.165364 0.103352,-0.153307 0.103352,-0.315226 0,-0.07062 -0.05168,-0.117133 -0.05168,-0.04823 -0.129191,-0.04823 -0.235988,0 -0.310058,0.334174 h -0.451306 q 0.151584,-0.694186 0.77859,-0.694186 0.299722,0 0.475422,0.156752 0.177422,0.155029 0.177422,0.418578 0,0.237711 -0.148139,0.408243 -0.146416,0.170532 -0.411688,0.211873 v 0.0069 q 0.354844,0.144694 0.354844,0.521931 0,0.310058 -0.237711,0.530543 -0.235989,0.218764 -0.573607,0.218764 -0.335896,0 -0.528821,-0.172255 -0.192925,-0.172254 -0.192925,-0.478867 0,-0.08096 0.01378,-0.168809 z"
           id="path11" />
      </g>
      <path
         style="font-size:3.52777px;font-family:Rockwell;-inkscape-font-specification:'Rockwell, Normal';fill:#782121;stroke:#760000;stroke-width:0.065;stroke-opacity:0"
         d="m 10.856251,19.575604 0.311781,0.173977 q -0.105075,0.39963 -0.425468,0.620116 -0.318671,0.218763 -0.733804,0.218763 -0.5443241,0 -0.87333,-0.353122 -0.3290059,-0.353121 -0.3290059,-0.87333 0,-0.570162 0.3307285,-0.90778 0.3307284,-0.337619 0.8629944,-0.337619 0.470255,0 0.790648,0.256659 v -0.218763 h 0.310058 v 0.769977 h -0.310058 q -0.103353,-0.234266 -0.318671,-0.361734 -0.215318,-0.129191 -0.453029,-0.129191 -0.3582891,0 -0.58911,0.258382 -0.2290983,0.258381 -0.2290983,0.652844 0,0.404798 0.2463238,0.661457 0.2463238,0.256659 0.5839425,0.256659 0.277329,0 0.504705,-0.177422 0.227376,-0.179145 0.320393,-0.509873 z m 0.840602,0.675237 v -1.796613 h -0.310058 v -0.299723 h 0.980127 v 0.299723 h -0.294555 v 1.796613 h 0.733804 v -0.814763 h 0.337619 v 1.114486 h -1.756995 v -0.299723 z m 1.841399,0 V 18.454228 H 13.23853 v -0.299723 h 0.969792 v 0.299723 h -0.308335 v 1.796613 h 0.275607 v 0.299723 H 13.23853 v -0.299723 z m 0.373792,-0.964624 0.768255,-0.831989 h -0.273884 v -0.299723 h 0.938786 v 0.299723 h -0.254936 l -0.737249,0.831989 0.757919,0.964624 h 0.256659 v 0.299723 h -0.973237 v -0.299723 h 0.258381 z"
         id="text8"
         aria-label="CLK" />
      <path
         style="font-size:3.52777px;font-family:Rockwell;-inkscape-font-specification:'Rockwell, Normal';fill:#782121;stroke:#760000;stroke-width:0.065;stroke-opacity:0"
         d="m 5.1476164,28.818105 q 0,-0.07924 0.055121,-0.137804 0.056844,-0.05857 0.1429711,-0.05857 0.08096,0 0.1395261,0.05684 0.058566,0.05684 0.058566,0.139526 0,0.08268 -0.058566,0.141248 -0.058567,0.05684 -0.1395261,0.05684 -0.082682,0 -0.1412486,-0.05857 -0.056844,-0.05857 -0.056844,-0.139526 z m 0.046509,1.943029 V 29.675932 H 4.9340209 v -0.29111 h 0.5873875 v 1.376312 h 0.256659 v 0.29111 H 4.9340209 v -0.29111 z M 6.56527,29.384822 v 0.201537 q 0.3152256,-0.227376 0.5753297,-0.227376 0.1619191,0 0.2669943,0.07752 0.1067977,0.07579 0.1395261,0.187757 0.032728,0.110243 0.032728,0.323839 v 0.81304 h 0.2807747 v 0.29111 h -0.608058 v -1.09037 q 0,-0.18948 -0.056844,-0.246324 -0.056844,-0.05857 -0.139526,-0.05857 -0.2170406,0 -0.4909251,0.211872 v 0.892278 h 0.2876649 v 0.29111 H 5.9451542 v -0.29111 H 6.2379867 V 29.675932 H 5.9451542 v -0.29111 z"
         id="text8-4"
         aria-label="in" />
      <path
         style="font-size:3.52777px;font-family:Rockwell;-inkscape-font-specification:'Rockwell, Normal';fill:#782121;stroke:#760000;stroke-width:0.065;stroke-opacity:0"
         d="m 1.6900405,41.859806 v -0.29111 H 1.907081 v -0.256659 l 0.3272834,-0.299723 v 0.556382 h 0.3083354 v 0.29111 H 2.2343644 v 0.809595 q 0,0.194648 0.020671,0.241157 0.022393,0.04479 0.1085203,0.04479 0.091295,0 0.1791446,-0.03445 v 0.298 q -0.1257457,0.04479 -0.2514915,0.04479 -0.1498613,0 -0.2428787,-0.06546 -0.093017,-0.06718 -0.1171329,-0.167086 -0.024116,-0.09991 -0.024116,-0.344509 v -0.826821 z m 2.8490877,0.625283 H 3.1369774 q 0.031006,0.230821 0.1825897,0.373792 0.1515839,0.142971 0.3875724,0.142971 0.3427862,0 0.5426013,-0.275607 l 0.2893874,0.127469 q -0.1412486,0.218763 -0.3669019,0.32556 -0.2256532,0.105076 -0.471977,0.105076 -0.3824048,0 -0.6545667,-0.237712 -0.2704394,-0.239433 -0.2704394,-0.644231 0,-0.384127 0.2635492,-0.632174 0.2652718,-0.248046 0.608058,-0.248046 0.3358961,0 0.6080581,0.242879 0.2738844,0.241156 0.2842197,0.720023 z M 4.2015096,42.247378 Q 4.1670587,42.071679 4.0189199,41.93043 3.8707812,41.787459 3.6554632,41.787459 q -0.1963701,0 -0.3358961,0.129191 -0.1395261,0.127468 -0.1705319,0.330728 z m 0.8595493,0.69763 V 41.859806 H 4.7837293 v -0.29111 h 0.604613 v 0.21015 q 0.2962775,-0.235988 0.5804973,-0.235988 0.2859423,0 0.3944626,0.260104 0.3255608,-0.260104 0.6063354,-0.260104 0.1619192,0 0.2652718,0.07235 0.1050752,0.07062 0.1412486,0.180868 0.036173,0.10852 0.036173,0.322115 v 0.826821 h 0.29111 v 0.29111 H 7.0850481 v -1.059364 q 0,-0.144694 -0.01378,-0.20326 -0.012058,-0.06029 -0.065457,-0.09819 -0.051676,-0.03962 -0.1257457,-0.03962 -0.2101504,0 -0.4771447,0.215318 v 0.894 H 6.688863 v 0.29111 H 6.0756373 v -1.09037 q 0,-0.163642 -0.048231,-0.235989 -0.046509,-0.07407 -0.1601966,-0.07407 -0.1860348,0 -0.4788672,0.215318 v 0.894 h 0.2928324 v 0.29111 H 4.7630588 v -0.29111 z m 2.9903366,0.747584 V 41.859806 H 7.7706208 v -0.29111 h 0.608058 v 0.261826 q 0.2446013,-0.287664 0.5925552,-0.287664 0.3513989,0 0.5804973,0.241156 0.2308209,0.241156 0.2308209,0.627006 0,0.404798 -0.2497689,0.639064 -0.2497689,0.234266 -0.5684395,0.234266 -0.3307285,0 -0.585665,-0.254937 v 0.663179 h 0.3238383 v 0.29111 H 7.7465052 v -0.29111 z m 0.3221157,-1.266069 q 0,0.137803 0.056844,0.263549 0.056844,0.125746 0.1808672,0.211873 0.1240231,0.0844 0.2911099,0.0844 0.234266,0 0.3858498,-0.156751 0.1533065,-0.156752 0.1533065,-0.430636 0,-0.266994 -0.1601966,-0.416856 -0.1584741,-0.149861 -0.3617343,-0.149861 -0.2170405,0 -0.3824047,0.163642 -0.1636417,0.161919 -0.1636417,0.430636 z m 1.6880928,-0.02412 q 0,-0.38585 0.254936,-0.632174 0.254937,-0.248046 0.621839,-0.248046 0.360011,0 0.618393,0.244601 0.258382,0.242879 0.258382,0.635619 0,0.39274 -0.258382,0.637341 -0.256659,0.244602 -0.618393,0.244602 -0.37207,0 -0.625284,-0.248047 -0.251491,-0.248046 -0.251491,-0.633896 z m 0.346231,0 q 0,0.246324 0.153307,0.404798 0.155029,0.156751 0.377237,0.156751 0.225653,0 0.377237,-0.158474 0.153306,-0.160196 0.153306,-0.403075 0,-0.244601 -0.155029,-0.403075 -0.155029,-0.158474 -0.375514,-0.158474 -0.230821,0 -0.380682,0.161919 -0.149862,0.161919 -0.149862,0.39963 z"
         id="text8-4-9"
         aria-label="tempo" />
      <path
         style="font-size:3.52777px;font-family:Rockwell;-inkscape-font-specification:'Rockwell, Normal';fill:#782121;stroke:#760000;stroke-width:0.065;stroke-opacity:0"
         d="m 16.507183,43.7178 h 0.30489 v 0.29111 H 15.856061 V 43.7178 h 0.323838 v -0.666625 q -0.248046,0.258382 -0.590832,0.258382 -0.311781,0 -0.563272,-0.232543 -0.249769,-0.232544 -0.249769,-0.644232 0,-0.389295 0.232543,-0.627006 0.232544,-0.237711 0.578775,-0.237711 0.347954,0 0.592555,0.287665 v -0.261827 h 0.608058 v 0.29111 h -0.280774 z m -0.322116,-1.26607 q 0,-0.268717 -0.165364,-0.430636 -0.163642,-0.163641 -0.380683,-0.163641 -0.21015,0 -0.366901,0.153306 -0.155029,0.153306 -0.155029,0.418578 0,0.242879 0.139526,0.413411 0.141248,0.168809 0.396185,0.168809 0.256659,0 0.394462,-0.172254 0.137804,-0.172255 0.137804,-0.387573 z m 2.585538,0.518486 v 0.29111 h -0.614948 v -0.191203 q -0.287665,0.218764 -0.551214,0.218764 -0.167087,0 -0.277329,-0.07235 -0.108521,-0.07407 -0.144694,-0.18948 -0.03617,-0.117133 -0.03617,-0.375515 v -0.766532 h -0.235988 v -0.29111 h 0.563272 v 1.016301 q 0,0.184312 0.01034,0.248047 0.01033,0.06373 0.06029,0.105075 0.04995,0.04134 0.125746,0.04134 0.227376,0 0.485757,-0.217041 v -0.902613 h -0.294555 v -0.29111 h 0.621839 v 1.376313 z m 1.86207,0 v 0.29111 h -0.571884 v -0.20326 q -0.237711,0.230821 -0.530544,0.230821 -0.227376,0 -0.396185,-0.148139 -0.167087,-0.148139 -0.167087,-0.37896 0,-0.232543 0.177422,-0.38585 0.179145,-0.153306 0.430636,-0.153306 0.234266,0 0.453029,0.141248 v -0.165364 q 0,-0.127468 -0.02411,-0.19637 -0.02412,-0.0689 -0.113688,-0.124023 -0.08785,-0.05512 -0.230821,-0.05512 -0.246324,0 -0.356567,0.19637 l -0.313503,-0.08268 q 0.208428,-0.389295 0.720024,-0.389295 0.187757,0 0.323838,0.05168 0.137803,0.04995 0.204983,0.130913 0.06718,0.07924 0.08957,0.172255 0.02412,0.09302 0.02412,0.296277 v 0.7717 z M 20.028062,42.64121 q -0.211873,-0.165364 -0.428913,-0.165364 -0.136081,0 -0.227376,0.07924 -0.0913,0.07924 -0.0913,0.204983 0,0.117133 0.07924,0.19637 0.08096,0.07924 0.218763,0.07924 0.237711,0 0.449584,-0.199816 z m 1.364255,-1.047307 v 0.201538 q 0.315226,-0.227376 0.57533,-0.227376 0.161919,0 0.266994,0.07752 0.106798,0.07579 0.139526,0.187757 0.03273,0.110243 0.03273,0.323838 v 0.813041 h 0.280774 v 0.29111 h -0.608058 v -1.09037 q 0,-0.18948 -0.05684,-0.246324 -0.05684,-0.05857 -0.139526,-0.05857 -0.21704,0 -0.490925,0.211873 v 0.892278 h 0.287665 v 0.29111 h -0.90778 v -0.29111 h 0.292832 v -1.085203 h -0.292832 v -0.29111 z m 1.414209,0.29111 v -0.29111 h 0.21704 v -0.256659 l 0.327284,-0.299722 v 0.556381 h 0.308335 v 0.29111 H 23.35085 v 0.809596 q 0,0.194647 0.02067,0.241156 0.02239,0.04479 0.10852,0.04479 0.0913,0 0.179145,-0.03445 v 0.298 q -0.125746,0.04479 -0.251491,0.04479 -0.149862,0 -0.242879,-0.06546 -0.09302,-0.06718 -0.117133,-0.167087 -0.02412,-0.09991 -0.02412,-0.344509 v -0.826821 z"
         id="text8-4-9-9"
         aria-label="quant" />
      <path
         style="font-size:3.52777px;font-family:Rockwell;-inkscape-font-specification:'Rockwell, Normal';fill:#782121;stroke:#760000;stroke-width:0.065;stroke-opacity:0"
         d="m 16.98849,30.104584 q 0,-0.38585 0.254937,-0.632174 0.254936,-0.248046 0.621838,-0.248046 0.360012,0 0.618393,0.244601 0.258382,0.242879 0.258382,0.635619 0,0.39274 -0.258382,0.637341 -0.256659,0.244602 -0.618393,0.244602 -0.372069,0 -0.625283,-0.248047 -0.251492,-0.248046 -0.251492,-0.633896 z m 0.346231,0 q 0,0.246324 0.153307,0.404798 0.155029,0.156751 0.377237,0.156751 0.225653,0 0.377237,-0.158474 0.153307,-0.160196 0.153307,-0.403075 0,-0.244601 -0.155029,-0.403075 -0.155029,-0.158474 -0.375515,-0.158474 -0.230821,0 -0.380682,0.161919 -0.149862,0.161919 -0.149862,0.39963 z m 3.49332,0.542601 v 0.29111 h -0.614949 v -0.191202 q -0.287664,0.218763 -0.551214,0.218763 -0.167086,0 -0.277329,-0.07235 -0.10852,-0.07407 -0.144694,-0.18948 -0.03617,-0.117133 -0.03617,-0.375514 v -0.766532 h -0.235989 v -0.29111 h 0.563272 v 1.016301 q 0,0.184312 0.01034,0.248046 0.01034,0.06373 0.06029,0.105075 0.04995,0.04134 0.125746,0.04134 0.227376,0 0.485757,-0.21704 v -0.902613 h -0.294555 v -0.29111 h 0.621839 v 1.376312 z m 0.141248,-1.085202 v -0.29111 h 0.217041 v -0.256659 l 0.327283,-0.299723 v 0.556382 h 0.308336 v 0.29111 h -0.308336 v 0.809595 q 0,0.194648 0.02067,0.241157 0.02239,0.04479 0.10852,0.04479 0.09129,0 0.179145,-0.03445 v 0.298 q -0.125746,0.04479 -0.251492,0.04479 -0.149861,0 -0.242879,-0.06546 -0.09302,-0.06718 -0.117133,-0.167086 -0.02411,-0.09991 -0.02411,-0.344509 v -0.826821 z"
         id="text8-4-2"
         aria-label="out" />
    </g>
  </g>
  <g
     inkscape:groupmode="layer"
     id="components"
     inkscape:label="components">
    <circle
       style="fill:#ff00ff"
       id="path3"
       cx="12.566347"
       cy="22.801538"
       r="0.95005965"
       inkscape:label="light" />
    <circle
       style="fill:#ff0000"
       id="path4"
       cx="6.6657386"
       cy="37.036007"
       r="3.1425049"
       inkscape:label="tempo" />
    <circle
       style="fill:#ff0000"
       id="path4-6"
       cx="19.500792"
       cy="37.147545"
       r="3.1425049"
       inkscape:label="quant" />
    <circle
       style="fill:#00ff00"
       id="path5"
       cx="6.3876019"
       cy="25.007027"
       r="3.1425049"
       inkscape:label="in" />
    <circle
       style="fill:#0000ff"
       id="path6"
       cx="19.432337"
       cy="25.105946"
       r="3.2886679"
       inkscape:label="out" />
  </g>
</svg>
